<?xml version="1.0" ?><svg style="enable-background:new 0 0 64 64;" version="1.1" viewBox="0 0 64 64" xml:space="preserve" xmlns="http://www.w3.org/2000/svg" xmlns:xlink="http://www.w3.org/1999/xlink"><style type="text/css">
	.st0{fill:#4267B2;}
	.st1{fill:url(#SVGID_1_);}
	.st2{fill:#FFFFFF;}
	.st3{fill:#C2191E;}
	.st4{fill:#1DA1F3;}
	.st5{fill:#FEFE00;}
	.st6{fill:#25D366;stroke:#FFFFFF;stroke-width:5;stroke-miterlimit:10;}
	.st7{fill:#CB2027;}
	.st8{fill:#0077B5;}
	.st9{fill:url(#SVGID_2_);}
	.st10{fill:url(#SVGID_3_);}
	.st11{fill:#FF004F;}
	.st12{fill:#00F7EF;}
	.st13{fill:#5181B8;}
	.st14{fill:#395976;}
	.st15{fill:#F58220;}
	.st16{fill:#E6162D;}
	.st17{fill:#FF9933;}
</style><g id="guidlines"/><g id="FB"/><g id="ig"/><g id="yt"/><g id="twitter"/><g id="snapchat"/><g id="WA"/><g id="Pinterrest"><g><g><path class="st7" d="M62,32c0,16.6-13.4,30-30,30c-2.8,0-5.4-0.4-8-1.1l3-5.9l1.7-9.5c0,0,1.8,3.7,7,3.6     c5.3-0.1,9.8-2.2,13.9-10.2c4.1-7.9,0.6-22.3-11.9-25.2c-12.5-2.9-23.1,4.4-24.8,14.8C11.3,38.9,19.5,43,19.5,43l1.2-4.4     c0,0-5.1-6.4-0.6-14c4.5-7.6,16.1-8.4,21.4-2.3c5.3,6.1,2.3,16.6-1.2,19.8c-3.5,3.2-7,2.3-8.4,1.2c-1.4-1.1-2.1-3.1-0.8-7.2     c1.3-4.1,2.5-6.9,1.5-9.6s-5.3-2.3-6.7-0.5c-1.4,1.8-3.1,5-1.2,10.1L20,53v6.5C9.4,54.9,2,44.3,2,32C2,15.4,15.4,2,32,2     S62,15.4,62,32z"/></g></g></g><g id="Layer_9"/><g id="Layer_10"/><g id="Layer_11"/><g id="Layer_12"/><g id="Layer_13"/><g id="Layer_14"/><g id="Layer_15"/><g id="Layer_16"/><g id="Layer_17"/></svg>