<svg xmlns="http://www.w3.org/2000/svg" className="g-icon l-sidebar__menu__icon" aria-hidden="true" viewBox="0 0 24 24" width="24"  height="24" ><g fill="#E85DBE" id="icon-add-bank"> <path d="M15 18H3a1 1 0 0 0 0 2h12a1 1 0 0 0 0-2zM3 9h18a1 1 0 0 0 .49-1.87l-9-5a1 1 0 0 0-1 0l-9 5A1 1 0 0 0 3 9zm9-4.86L17.14 7H6.86zM11 11v5a1 1 0 0 0 2 0v-5a1 1 0 0 0-2 0zm-6 0v5a1 1 0 0 0 2 0v-5a1 1 0 0 0-2 0zm14 4v-4a1 1 0 0 0-2 0v4a1 1 0 0 0 2 0zm4.2 3H22v-1.2a.8.8 0 0 0-.8-.8h-.4a.8.8 0 0 0-.8.8V18h-1.2a.8.8 0 0 0-.8.8v.4a.8.8 0 0 0 .8.8H20v1.2a.8.8 0 0 0 .8.8h.4a.8.8 0 0 0 .8-.8V20h1.2a.8.8 0 0 0 .8-.8v-.4a.8.8 0 0 0-.8-.8z" fill="#E85DBE"></path> </g></svg>