<?xml version="1.0" encoding="iso-8859-1"?>
<!-- Generator: Adobe Illustrator 19.0.0, SVG Export Plug-In . SVG Version: 6.00 Build 0)  -->
<svg version="1.1" id="Capa_1" xmlns="http://www.w3.org/2000/svg" xmlns:xlink="http://www.w3.org/1999/xlink" x="0px" y="0px"
	 viewBox="0 0 368 368" style="enable-background:new 0 0 368 368;" xml:space="preserve">
<g>
	<g>
		<path d="M303.384,100.944c-0.408-0.984-1-1.872-1.736-2.616l-47.992-47.992c-3.128-3.128-8.184-3.128-11.312,0
			c-3.128,3.128-3.128,8.184,0,11.312L276.688,96H104c-4.416,0-8,3.576-8,8v64c0,4.424,3.584,8,8,8s8-3.576,8-8v-56h164.688
			l-34.344,34.344c-3.128,3.128-3.128,8.184,0,11.312c1.56,1.56,3.608,2.344,5.656,2.344c2.048,0,4.096-0.784,5.656-2.344
			l47.992-47.992c0.744-0.736,1.328-1.624,1.736-2.608C304.192,105.104,304.192,102.896,303.384,100.944z"/>
	</g>
</g>
<g>
	<g>
		<path d="M264,192c-4.424,0-8,3.576-8,8v56H91.312l34.344-34.344c3.128-3.128,3.128-8.184,0-11.312
			c-3.128-3.128-8.184-3.128-11.312,0l-47.992,47.992c-0.744,0.736-1.328,1.624-1.736,2.608c-0.808,1.952-0.808,4.16,0,6.112
			c0.408,0.984,0.992,1.864,1.736,2.608l47.992,47.992c1.56,1.56,3.608,2.344,5.656,2.344c2.048,0,4.096-0.784,5.656-2.344
			c3.128-3.128,3.128-8.184,0-11.312L91.312,272H264c4.424,0,8-3.576,8-8v-64C272,195.576,268.424,192,264,192z"/>
	</g>
</g>
<g>
	<g>
		<path d="M328,0H40C17.944,0,0,17.944,0,40v288c0,22.056,17.944,40,40,40h288c22.056,0,40-17.944,40-40.008V40
			C368,17.944,350.056,0,328,0z M352,327.992C352,341.224,341.232,352,328,352H40c-13.232,0-24-10.768-24-24V40
			c0-13.232,10.768-24,24-24h288c13.232,0,24,10.768,24,24V327.992z"/>
	</g>
</g>
<g>
</g>
<g>
</g>
<g>
</g>
<g>
</g>
<g>
</g>
<g>
</g>
<g>
</g>
<g>
</g>
<g>
</g>
<g>
</g>
<g>
</g>
<g>
</g>
<g>
</g>
<g>
</g>
<g>
</g>
</svg>
