<svg xmlns="http://www.w3.org/2000/svg" className="g-icon" aria-hidden="true" viewBox="0 0 24 24" width="24"  height="24" ><g fill="rgba(138, 150, 163, 0.7)" id="icon-filter"> <path d="M3 18a1 1 0 001 1h5v-2H4a1 1 0 00-1 1zM3 6a1 1 0 001 1h9V5H4a1 1 0 00-1 1zm10 14v-1h7a1 1 0 000-2h-7v-1a1 1 0 00-2 0v4a1 1 0 002 0zM7 10v1H4a1 1 0 000 2h3v1a1 1 0 002 0v-4a1 1 0 00-2 0zm14 2a1 1 0 00-1-1h-9v2h9a1 1 0 001-1zm-5-3a1 1 0 001-1V7h3a1 1 0 000-2h-3V4a1 1 0 00-2 0v4a1 1 0 001 1z" fill="#E85DBE"></path> </g></svg>