<svg xmlns="http://www.w3.org/2000/svg" className="g-icon l-sidebar__menu__icon" aria-hidden="true" viewBox="0 0 24 24" width="24"  height="24" ><g fill="#E85DBE" id="icon-support"> <path d="M12 14a1.35 1.35 0 1 0 1.35 1.35A1.34 1.34 0 0 0 12 14zm0-12a9 9 0 0 0-1 17.94V22a1 1 0 0 0 1 1c1.09 0 9-4.63 9-12a9 9 0 0 0-9-9zm1 18.28V19a1 1 0 0 0-1-1 7 7 0 1 1 7-7c0 4.06-3 7.35-6 9.28zM12.05 6a3.5 3.5 0 0 0-3.61 3.1.29.29 0 0 0 .28.31h1.59c.26 0 .35-.17.44-.43a1.2 1.2 0 0 1 1.3-.79c.64 0 1.17.23 1.17.88 0 1.1-2.35 1.68-2.35 3.55a.37.37 0 0 0 .35.38h1.59c.17 0 .29-.13.35-.38.33-1.3 2.4-1.67 2.4-3.71 0-1.76-1.65-2.91-3.51-2.91z" fill="#E85DBE"></path> </g></svg>