<?xml version="1.0" encoding="iso-8859-1"?>
<!-- Generator: Adobe Illustrator 19.0.0, SVG Export Plug-In . SVG Version: 6.00 Build 0)  -->
<svg version="1.1" id="Layer_1" xmlns="http://www.w3.org/2000/svg" xmlns:xlink="http://www.w3.org/1999/xlink" x="0px" y="0px"
	 viewBox="0 0 512 512" style="enable-background:new 0 0 512 512;" xml:space="preserve">
<g transform="translate(1 1)">
	<g>
		<path d="M511,255C511,116.805,401.133,3.982,264.096-0.821L263.828-1h-5.297c-0.883,0-2.648,0-3.531,0s-2.648,0-3.531,0h-5.297
			l-0.268,0.179C108.867,3.982-1,116.805-1,255s109.867,251.018,246.904,255.821l0.268,0.179h5.297c0.883,0,2.648,0,3.531,0
			s2.648,0,3.531,0h5.297l0.268-0.179C401.133,506.018,511,393.195,511,255z M16.835,263.828h105.871
			c0.994,37.318,8.278,73.646,21.225,107.689c-25.028,9.15-48.912,21.505-71.159,37.01C39.543,369.136,18.844,318.85,16.835,263.828
			z M76.856,96.759c22.112,14.256,45.588,25.697,70.044,34.194c-14.805,36.194-23.127,75.136-24.194,115.22H16.835
			C18.925,188.929,41.244,136.813,76.856,96.759z M493.165,246.172H387.294c-1.068-40.102-9.396-79.062-24.214-115.269
			c24.48-8.556,47.89-20.087,69.778-34.467C468.636,136.532,491.069,188.775,493.165,246.172z M246.172,131.274
			c-25.442-0.727-50.661-4.59-75.041-11.471c17.896-36.865,43.218-70.169,75.041-97.897V131.274z M246.172,148.94v97.233H140.365
			c1.069-38.317,9.092-75.45,23.362-109.886C190.355,143.945,217.997,148.202,246.172,148.94z M263.828,148.94
			c28.204-0.738,55.866-5.005,82.434-12.678c14.277,34.443,22.303,71.585,23.373,109.911H263.828V148.94z M263.828,131.274V21.906
			c31.823,27.728,57.145,61.032,75.041,97.897C314.489,126.684,289.27,130.547,263.828,131.274z M355.826,114.485
			c-16.851-35.468-40.123-67.913-69.029-95.708c51.477,6.878,97.779,30.213,133.435,64.539
			C399.976,96.274,378.338,106.698,355.826,114.485z M154.174,114.485c-22.511-7.786-44.15-18.21-64.406-31.169
			c35.656-34.326,81.957-57.661,133.435-64.539C194.297,46.572,171.025,79.016,154.174,114.485z M140.365,263.828h105.807v88.405
			c-29.307,0.768-58.026,5.361-85.543,13.704C148.296,333.712,141.354,299.277,140.365,263.828z M246.172,369.895v118.199
			c-34.071-29.687-60.688-65.765-78.72-105.762C192.813,374.839,219.218,370.647,246.172,369.895z M263.828,488.094V369.895
			c26.925,0.751,53.31,4.934,78.732,12.412C324.527,422.313,297.905,458.401,263.828,488.094z M263.828,352.233v-88.405h105.807
			c-0.988,35.405-7.913,69.799-20.218,101.989C321.824,357.578,293.115,352.999,263.828,352.233z M387.294,263.828h105.871
			c-1.994,54.595-22.384,104.529-55.161,143.781c-22.608-15.139-46.703-27.278-71.856-36.298
			C379.046,337.328,386.302,301.071,387.294,263.828z M84.419,421.362c20.798-13.947,43.009-25.159,66.229-33.524
			c17.068,38.467,41.575,73.597,72.554,103.386C169.109,483.996,120.735,458.591,84.419,421.362z M286.797,491.223
			c30.993-29.802,55.509-64.95,72.578-103.438c23.205,8.304,45.497,19.42,66.532,33.243
			C389.555,458.44,341.053,483.974,286.797,491.223z"/>
	</g>
</g>
<g>
</g>
<g>
</g>
<g>
</g>
<g>
</g>
<g>
</g>
<g>
</g>
<g>
</g>
<g>
</g>
<g>
</g>
<g>
</g>
<g>
</g>
<g>
</g>
<g>
</g>
<g>
</g>
<g>
</g>
</svg>
