<svg xmlns="http://www.w3.org/2000/svg" className="g-icon l-sidebar__menu__icon" aria-hidden="true" viewBox="0 0 24 24" width="24"  height="24" ><g fill="#E85DBE" id="icon-lists"> <path d="M6.69 5H5.24L4.8 3.64a.31.31 0 00-.6 0L3.76 5H2.31a.31.31 0 00-.18.56l1.17.85-.45 1.39a.28.28 0 000 .09.31.31 0 00.31.32.3.3 0 00.18-.06L4.5 7.3l1.17.85a.3.3 0 00.18.06.31.31 0 00.31-.32.28.28 0 000-.09L5.7 6.42l1.17-.85A.31.31 0 006.69 5zm0 6H5.24L4.8 9.64a.31.31 0 00-.6 0L3.76 11H2.31a.31.31 0 00-.18.56l1.17.85-.45 1.39a.28.28 0 000 .09.31.31 0 00.31.32.3.3 0 00.18-.06l1.16-.85 1.17.85a.3.3 0 00.18.06.31.31 0 00.31-.32.28.28 0 000-.09l-.46-1.38 1.17-.85a.31.31 0 00-.18-.57zm0 6H5.24l-.44-1.36a.31.31 0 00-.6 0L3.76 17H2.31a.31.31 0 00-.18.56l1.17.85-.45 1.39a.28.28 0 000 .09.31.31 0 00.31.32.3.3 0 00.18-.06l1.16-.85 1.17.85a.3.3 0 00.18.06.31.31 0 00.31-.32.28.28 0 000-.09l-.46-1.38 1.17-.85a.31.31 0 00-.18-.57zM10 7h10a1 1 0 000-2H10a1 1 0 000 2zm10 4H10a1 1 0 000 2h10a1 1 0 000-2zm0 6H10a1 1 0 000 2h10a1 1 0 000-2z" fill="#E85DBE"></path> </g></svg>