<?xml version="1.0" encoding="UTF-8"?>
<svg xmlns="http://www.w3.org/2000/svg" xmlns:xlink="http://www.w3.org/1999/xlink" width="25px" height="24px" viewBox="0 0 25 24" version="1.1">
<g id="surface1">
<path style=" stroke:none;fill-rule:nonzero;fill:#E85DBE;fill-opacity:1;" d="M 17.511719 12.488281 L 13.753906 12.488281 L 15.710938 9.230469 C 16.160156 8.488281 16.398438 7.628906 16.398438 6.742188 C 16.398438 4.167969 14.386719 2.070312 11.917969 2.070312 C 9.445312 2.070312 7.4375 4.167969 7.4375 6.742188 C 7.4375 7.628906 7.675781 8.488281 8.125 9.230469 L 10.082031 12.488281 L 6.324219 12.488281 L 3.421875 19.789062 L 20.410156 19.789062 Z M 14.957031 16.640625 L 18.082031 16.640625 L 18.921875 18.753906 L 15.214844 18.753906 Z M 14.210938 18.753906 L 9.617188 18.753906 L 9.871094 16.640625 L 13.953125 16.640625 Z M 17.671875 15.601562 L 14.828125 15.601562 L 14.574219 13.527344 L 16.84375 13.527344 Z M 8.433594 6.742188 C 8.433594 4.738281 9.996094 3.109375 11.917969 3.109375 C 13.839844 3.109375 15.402344 4.738281 15.402344 6.742188 C 15.402344 7.429688 15.21875 8.101562 14.867188 8.679688 L 11.917969 13.585938 L 8.96875 8.679688 C 8.617188 8.101562 8.433594 7.429688 8.433594 6.742188 Z M 11.917969 15.542969 L 13.128906 13.527344 L 13.574219 13.527344 L 13.824219 15.601562 L 9.992188 15.601562 L 10.242188 13.527344 L 10.707031 13.527344 Z M 6.988281 13.527344 L 9.238281 13.527344 L 8.992188 15.601562 L 6.164062 15.601562 Z M 5.75 16.640625 L 8.867188 16.640625 L 8.613281 18.753906 L 4.914062 18.753906 Z M 5.75 16.640625 "/>
<path style=" stroke:none;fill-rule:nonzero;fill:#E85DBE;fill-opacity:1;" d="M 14.40625 6.742188 C 14.40625 5.3125 13.289062 4.148438 11.917969 4.148438 C 10.542969 4.148438 9.429688 5.3125 9.429688 6.742188 C 9.429688 8.175781 10.542969 9.339844 11.917969 9.339844 C 13.289062 9.339844 14.40625 8.175781 14.40625 6.742188 Z M 10.421875 6.742188 C 10.421875 5.882812 11.09375 5.1875 11.917969 5.1875 C 12.742188 5.1875 13.410156 5.882812 13.410156 6.742188 C 13.410156 7.601562 12.742188 8.300781 11.917969 8.300781 C 11.09375 8.300781 10.421875 7.601562 10.421875 6.742188 Z M 10.421875 6.742188 "/>
</g>
</svg>
