<?xml version="1.0" encoding="UTF-8"?>
<svg xmlns="http://www.w3.org/2000/svg" xmlns:xlink="http://www.w3.org/1999/xlink" width="15pt" height="15pt" viewBox="0 0 15 15" version="1.1">
<g id="surface1">
<path style=" stroke:none;fill-rule:nonzero;fill:rgb(0%,0%,0%);fill-opacity:1;" d="M 14.558594 0.0898438 C 14.527344 0.0976562 11.269531 3.328125 7.324219 7.273438 C 0.453125 14.144531 0.148438 14.449219 0.148438 14.550781 C 0.148438 14.683594 0.246094 14.78125 0.386719 14.78125 C 0.480469 14.78125 0.898438 14.367188 7.664062 7.605469 C 15.34375 -0.078125 14.910156 0.375 14.8125 0.191406 C 14.773438 0.125 14.644531 0.0742188 14.558594 0.0898438 Z M 14.558594 0.0898438 "/>
<path style=" stroke:none;fill-rule:nonzero;fill:rgb(0%,0%,0%);fill-opacity:1;" d="M 7.15625 0.476562 C 6.882812 0.519531 6.59375 0.617188 6.308594 0.761719 C 6.089844 0.875 5.996094 0.949219 5.753906 1.191406 C 5.339844 1.605469 5.125 2.019531 5.039062 2.554688 C 4.996094 2.8125 4.996094 7.558594 5.039062 7.816406 C 5.078125 8.085938 5.207031 8.457031 5.292969 8.554688 C 5.386719 8.664062 5.53125 8.671875 5.636719 8.5625 C 5.730469 8.472656 5.722656 8.402344 5.601562 8.082031 L 5.519531 7.863281 L 5.519531 2.507812 L 5.585938 2.320312 C 5.765625 1.820312 6.136719 1.390625 6.582031 1.167969 C 6.933594 0.992188 7.207031 0.933594 7.59375 0.949219 C 8.570312 0.996094 9.351562 1.726562 9.480469 2.714844 C 9.496094 2.824219 9.511719 3.21875 9.511719 3.578125 C 9.511719 4.230469 9.511719 4.242188 9.578125 4.300781 C 9.671875 4.390625 9.816406 4.386719 9.90625 4.292969 L 9.980469 4.222656 L 9.980469 3.464844 C 9.980469 2.6875 9.960938 2.496094 9.855469 2.171875 C 9.59375 1.355469 8.894531 0.714844 8.050781 0.523438 C 7.789062 0.460938 7.382812 0.441406 7.15625 0.476562 Z M 7.15625 0.476562 "/>
<path style=" stroke:none;fill-rule:nonzero;fill:rgb(0%,0%,0%);fill-opacity:1;" d="M 9.597656 6.0625 L 9.515625 6.121094 L 9.503906 6.933594 C 9.488281 7.847656 9.472656 7.933594 9.269531 8.34375 C 9.175781 8.542969 9.097656 8.644531 8.898438 8.847656 C 8.46875 9.277344 8.023438 9.449219 7.394531 9.421875 C 7.132812 9.410156 7.023438 9.394531 6.847656 9.324219 C 6.523438 9.207031 6.457031 9.203125 6.371094 9.292969 C 6.261719 9.402344 6.265625 9.546875 6.382812 9.644531 C 6.480469 9.726562 6.839844 9.847656 7.117188 9.894531 C 8.1875 10.070312 9.265625 9.492188 9.738281 8.496094 C 9.945312 8.066406 9.980469 7.832031 9.980469 6.925781 C 9.980469 6.238281 9.972656 6.152344 9.929688 6.097656 C 9.855469 6.003906 9.691406 5.984375 9.597656 6.0625 Z M 9.597656 6.0625 "/>
<path style=" stroke:none;fill-rule:nonzero;fill:rgb(0%,0%,0%);fill-opacity:1;" d="M 3.582031 6.519531 L 3.507812 6.59375 L 3.523438 7.316406 C 3.535156 7.828125 3.550781 8.097656 3.585938 8.242188 C 3.710938 8.773438 3.992188 9.429688 4.191406 9.640625 C 4.289062 9.746094 4.3125 9.753906 4.398438 9.738281 C 4.589844 9.699219 4.664062 9.535156 4.566406 9.367188 C 4.390625 9.066406 4.179688 8.589844 4.117188 8.34375 C 4.019531 7.988281 3.984375 7.625 3.984375 7.050781 C 3.984375 6.597656 3.980469 6.585938 3.910156 6.515625 C 3.816406 6.421875 3.679688 6.421875 3.582031 6.519531 Z M 3.582031 6.519531 "/>
<path style=" stroke:none;fill-rule:nonzero;fill:rgb(0%,0%,0%);fill-opacity:1;" d="M 11.078125 6.511719 C 11.011719 6.578125 11.007812 6.597656 10.996094 7.238281 C 10.96875 8.253906 10.839844 8.714844 10.402344 9.375 C 9.570312 10.625 8.035156 11.203125 6.585938 10.816406 C 6.339844 10.75 5.855469 10.535156 5.5625 10.363281 C 5.4375 10.292969 5.339844 10.304688 5.246094 10.410156 C 5.089844 10.582031 5.226562 10.757812 5.6875 10.988281 C 6.136719 11.207031 6.601562 11.34375 7.09375 11.402344 L 7.257812 11.421875 L 7.257812 14.429688 L 6.234375 14.429688 C 5.550781 14.429688 5.191406 14.441406 5.144531 14.460938 C 5 14.527344 4.96875 14.707031 5.078125 14.832031 L 5.148438 14.914062 L 9.828125 14.914062 L 9.902344 14.84375 C 10.027344 14.730469 10.003906 14.546875 9.859375 14.472656 C 9.792969 14.4375 9.597656 14.429688 8.75 14.429688 L 7.726562 14.429688 L 7.726562 11.421875 L 7.867188 11.402344 C 8.464844 11.324219 8.863281 11.203125 9.316406 10.972656 C 10.253906 10.488281 10.972656 9.640625 11.289062 8.636719 C 11.433594 8.183594 11.472656 7.882812 11.472656 7.199219 C 11.472656 6.589844 11.472656 6.585938 11.398438 6.515625 C 11.308594 6.421875 11.171875 6.421875 11.078125 6.511719 Z M 11.078125 6.511719 "/>
</g>
</svg>
