<svg xmlns="http://www.w3.org/2000/svg" className="g-icon" aria-hidden="true" viewBox="0 0 24 24" width="24"  height="24" ><svg id="icon-announcement" viewBox="0 0 24 24"> <path d="M23 12a1 1 0 00-.28-.7l-1.37-1.41a2 2 0 01-.57-1.39 2.64 2.64 0 010-.28l.28-2a.66.66 0 000-.14 1 1 0 00-.83-1l-1.91-.28a2 2 0 01-1.42-1L16 2a1 1 0 00-.88-.53 1 1 0 00-.44.1l-1.77.87a2 2 0 01-1.76 0l-1.8-.85a1 1 0 00-.44-.1A1 1 0 008 2l-.9 1.76a2 2 0 01-1.42 1l-1.94.34a1 1 0 00-.83 1 .66.66 0 000 .14l.28 2v.29a2 2 0 01-.57 1.39L1.28 11.3a1 1 0 000 1.4l1.37 1.41a2 2 0 01.57 1.39 2.64 2.64 0 010 .28l-.28 2a.66.66 0 000 .14 1 1 0 00.83 1l1.94.34a2 2 0 011.42 1L8 22a1 1 0 00.88.53 1 1 0 00.44-.1l1.77-.87a2 2 0 011.76 0l1.77.87a1 1 0 00.44.1A1 1 0 0016 22l.93-1.74a2 2 0 011.42-1l1.94-.34a1 1 0 00.83-1 .66.66 0 000-.14l-.28-1.95v-.29a2 2 0 01.57-1.39l1.37-1.41A1 1 0 0023 12zm-3.09.72a4 4 0 00-1.13 2.78 5.46 5.46 0 000 .56l.14 1-1 .17a4 4 0 00-2.84 2.07l-.47.89-.9-.44a4 4 0 00-3.52 0l-.9.44-.47-.89A4 4 0 006 17.23l-1-.17.14-1a5.46 5.46 0 000-.56 4 4 0 00-1.13-2.78L3.39 12l.7-.72A4 4 0 005.22 8.5a5.46 5.46 0 000-.56l-.22-1 1-.17A4 4 0 008.87 4.7l.47-.89.9.44a4 4 0 003.52 0l.9-.44.47.89A4 4 0 0018 6.77l1 .17-.14 1a5.46 5.46 0 000 .56 4 4 0 001.13 2.78l.7.72zM12 13.5a1 1 0 001-1v-5a1 1 0 00-2 0v5a1 1 0 001 1zm0 1.1a1.4 1.4 0 101.4 1.4 1.4 1.4 0 00-1.4-1.4z"></path> </svg></svg>