<svg xmlns="http://www.w3.org/2000/svg" className="g-icon m-gap-lg" aria-hidden="true" viewBox="0 0 24 24" width="24"  height="24" ><g fill="#8a96a3" id="icon-text"> <path d="M7.94,4.66a1,1,0,0,0-1.88,0l-5,14A1.06,1.06,0,0,0,1,19a1,1,0,0,0,1.94.34L4.13,16H9.87l1.19,3.34A1,1,0,0,0,12,20a1,1,0,0,0,1-1,1.06,1.06,0,0,0-.06-.34ZM4.85,14,7,8l2.15,6ZM23,19c0-.95-1-.65-1-2.7V12.7A3.86,3.86,0,0,0,18,9c-3,0-2.93,1-2.93,1.26a1,1,0,0,0,1,1A10.74,10.74,0,0,1,18,11a1.87,1.87,0,0,1,2,1.7v.47A11.3,11.3,0,0,0,18,13c-2.32,0-4,1.47-4,3.5S15.68,20,18,20a4.35,4.35,0,0,0,2.77-.92c.52.74.82.92,1.23.92A1,1,0,0,0,23,19Zm-3-2.5c0,1-1,1.5-2,1.5s-2-.46-2-1.5S17,15,18,15a8.3,8.3,0,0,1,2,.21Z" fill="#E85DBE"></path> </g></svg>