<svg xmlns="http://www.w3.org/2000/svg" id="icon-spotify" viewBox="0 0 24 24" fill="#aaaaaa" width="24"  height="24" > <path d="M17 12.42a12.52 12.52 0 0 0-6.38-1.67 12.15 12.15 0 0 0-3.48.49.76.76 0 0 0 .24 1.48.76.76 0 0 0 .21 0 10.14 10.14 0 0 1 3.05-.45 10.9 10.9 0 0 1 5.51 1.43.61.61 0 0 0 .39.13.82.82 0 0 0 .79-.78.68.68 0 0 0-.33-.63zm-1.09 3.13a9.64 9.64 0 0 0-5.15-1.36 15.06 15.06 0 0 0-3.36.4.67.67 0 0 0-.48.61.88.88 0 0 0 0 .16.67.67 0 0 0 .61.48.44.44 0 0 0 .16 0 13.72 13.72 0 0 1 3.07-.37 8.39 8.39 0 0 1 4.5 1.18.61.61 0 0 0 1-.54.57.57 0 0 0-.4-.56zM18 9.12a14.89 14.89 0 0 0-7.28-1.72 14.86 14.86 0 0 0-4.15.54.91.91 0 0 0-.63.87 1.09 1.09 0 0 0 0 .25.93.93 0 0 0 .87.63 14.38 14.38 0 0 1 3.74-.49c4.72 0 6.27 1.56 7 1.56a1 1 0 0 0 .79-.38.87.87 0 0 0 .12-.45.91.91 0 0 0-.46-.81zM12 2a10 10 0 1 0 10 10A10 10 0 0 0 12 2zm0 18a8 8 0 1 1 8-8 8 8 0 0 1-8 8z" fill="#E85DBE"></path> </svg>