<svg xmlns="http://www.w3.org/2000/svg" className="g-icon" aria-hidden="true" viewBox="0 0 24 24" width="24"  height="24" ><svg id="icon-star-default" viewBox="0 0 24 24"> <path d="M17.52,21a1,1,0,0,1-.52-.15l-5-3.1-5,3.1a1,1,0,0,1-.55.15,1,1,0,0,1-1-1,1,1,0,0,1,0-.24l1.4-5.71L2.42,10.26A1,1,0,0,1,3,8.5l5.86-.43,2.22-5.45A1,1,0,0,1,12,2a1,1,0,0,1,.93.63l2.22,5.45L21,8.5a1,1,0,0,1,.93,1h0a1,1,0,0,1-.36.77l-4.49,3.79,1.4,5.71s0,.08,0,.12,0,.08,0,.12A1,1,0,0,1,17.52,21ZM12,15.57h0a1,1,0,0,1,.53.15L16,17.86l-1-3.93s0-.08,0-.12a.68.68,0,0,1,0-.12,1,1,0,0,1,.36-.77l3.09-2.61-4-.29a1,1,0,0,1-.85-.62L12,5.65,10.47,9.4a1,1,0,0,1-.85.62l-4,.29,3.09,2.61a1,1,0,0,1,.36.77.68.68,0,0,1,0,.12s0,.08,0,.12L8,17.86l3.44-2.14A1,1,0,0,1,12,15.57Z" fill="#E85DBE"></path> </svg></svg>