<svg xmlns="http://www.w3.org/2000/svg" className="g-icon" aria-hidden="true" viewBox="0 0 24 24" width="24"  height="24" ><svg id="icon-follow" viewBox="0 0 24 24"> <path d="M14,12A4.5,4.5,0,1,0,9.5,7.5,4.51,4.51,0,0,0,14,12Zm0-7a2.5,2.5,0,1,1-2.5,2.5A2.5,2.5,0,0,1,14,5Zm8,15c0-1.07-2-6-8-6s-8,4.94-8,6a1,1,0,0,0,2,.21C8.5,17.77,11,16,14,16s5.5,1.77,6,4.21A1,1,0,0,0,22,20ZM6.24,9.28a1.77,1.77,0,0,0-1.75,1.54A1.76,1.76,0,0,0,2.74,9.28,1.73,1.73,0,0,0,1,11c0,1.36,1.26,2.42,3.08,4.09a.63.63,0,0,0,.84,0C6.73,13.45,8,12.39,8,11A1.73,1.73,0,0,0,6.24,9.28Z"></path> </svg></svg>