<svg width="24" height="24" viewBox="0 0 24 24" fill="none" xmlns="http://www.w3.org/2000/svg">
<path d="M14 12C14.89 12 15.76 11.7361 16.5001 11.2416C17.2401 10.7471 17.8169 10.0443 18.1575 9.22208C18.4981 8.39981 18.5872 7.49501 18.4135 6.6221C18.2399 5.74918 17.8113 4.94736 17.182 4.31802C16.5526 3.68868 15.7508 3.2601 14.8779 3.08647C14.005 2.91283 13.1002 3.00195 12.2779 3.34254C11.4557 3.68314 10.7529 4.25991 10.2584 4.99994C9.76392 5.73996 9.5 6.60999 9.5 7.5C9.50264 8.69266 9.9776 9.83572 10.8209 10.6791C11.6643 11.5224 12.8073 11.9974 14 12V12ZM14 5C14.4945 5 14.9778 5.14662 15.3889 5.42133C15.8 5.69603 16.1205 6.08648 16.3097 6.54329C16.4989 7.00011 16.5484 7.50278 16.452 7.98773C16.3555 8.47268 16.1174 8.91814 15.7678 9.26777C15.4181 9.6174 14.9727 9.8555 14.4877 9.95197C14.0028 10.0484 13.5001 9.99892 13.0433 9.8097C12.5865 9.62048 12.196 9.30005 11.9213 8.88893C11.6466 8.4778 11.5 7.99446 11.5 7.5C11.5 6.83696 11.7634 6.20108 12.2322 5.73223C12.7011 5.26339 13.337 5 14 5ZM22 20C22 18.93 20 14 14 14C8 14 6 18.94 6 20C5.98621 20.1313 5.99842 20.2641 6.03594 20.3907C6.07345 20.5173 6.13554 20.6353 6.21865 20.7379C6.30176 20.8405 6.40426 20.9257 6.52031 20.9887C6.63636 21.0517 6.76368 21.0912 6.895 21.105C7.02632 21.1188 7.15907 21.1066 7.28568 21.0691C7.41228 21.0315 7.53025 20.9695 7.63286 20.8864C7.73547 20.8032 7.8207 20.7007 7.8837 20.5847C7.94669 20.4686 7.98621 20.3413 8 20.21C8.5 17.77 11 16 14 16C17 16 19.5 17.77 20 20.21C20.0138 20.3413 20.0533 20.4686 20.1163 20.5847C20.1793 20.7007 20.2645 20.8032 20.3671 20.8864C20.4697 20.9695 20.5877 21.0315 20.7143 21.0691C20.8409 21.1066 20.9737 21.1188 21.105 21.105C21.2363 21.0912 21.3636 21.0517 21.4797 20.9887C21.5957 20.9257 21.6982 20.8405 21.7814 20.7379C21.8645 20.6353 21.9265 20.5173 21.9641 20.3907C22.0016 20.2641 22.0138 20.1313 22 20V20ZM6.24 9.28C5.81126 9.28121 5.39754 9.438 5.07568 9.72123C4.75382 10.0045 4.54571 10.3949 4.49 10.82C4.43633 10.394 4.22882 10.0024 3.90651 9.71874C3.5842 9.43511 3.16933 9.27907 2.74 9.28C2.51281 9.27868 2.28759 9.32213 2.07719 9.40786C1.86679 9.49358 1.67534 9.61991 1.51377 9.77963C1.35219 9.93935 1.22366 10.1293 1.13551 10.3387C1.04736 10.5481 1.00131 10.7728 1 11C1 12.36 2.26 13.42 4.08 15.09C4.1955 15.1933 4.34503 15.2504 4.5 15.2504C4.65497 15.2504 4.8045 15.1933 4.92 15.09C6.73 13.45 8 12.39 8 11C7.99871 10.7711 7.95201 10.5448 7.86261 10.334C7.77321 10.1233 7.64288 9.93245 7.47918 9.77247C7.31548 9.61249 7.12166 9.48658 6.90894 9.40205C6.69623 9.31751 6.46886 9.27603 6.24 9.28Z" fill="#E85DBE"/>
</svg>
