<?xml version="1.0"?>
<svg xmlns="http://www.w3.org/2000/svg" xmlns:xlink="http://www.w3.org/1999/xlink" xmlns:svgjs="http://svgjs.com/svgjs" version="1.1" width="512" height="512" x="0" y="0" viewBox="0 0 512 512" style="enable-background:new 0 0 512 512" xml:space="preserve" class=""><g>
<g xmlns="http://www.w3.org/2000/svg">
	<g>
		<path d="M467.692,83.692H44.308C19.876,83.692,0,103.569,0,128v256c0,24.431,19.876,44.308,44.308,44.308h423.385    C492.124,428.308,512,408.431,512,384V128C512,103.569,492.124,83.692,467.692,83.692z M482.462,384    c0,8.144-6.625,14.769-14.769,14.769H44.308c-8.144,0-14.769-6.625-14.769-14.769V192h452.923V384z M482.462,162.462H29.538V128    c0-8.144,6.625-14.769,14.769-14.769h423.385c8.144,0,14.769,6.625,14.769,14.769V162.462z" fill="#5ca4da" data-original="#000000" style="" class=""/>
	</g>
</g>
<g xmlns="http://www.w3.org/2000/svg">
	<g>
		<path d="M147.692,231.385h-39.385C83.876,231.385,64,251.261,64,275.692v39.385c0,24.431,19.876,44.308,44.308,44.308h39.385    c24.431,0,44.308-19.876,44.308-44.308v-39.385C192,251.261,172.124,231.385,147.692,231.385z M162.462,315.077    c0,8.144-6.625,14.769-14.769,14.769h-39.385c-8.144,0-14.769-6.625-14.769-14.769v-39.385c0-8.144,6.625-14.769,14.769-14.769    h39.385c8.144,0,14.769,6.625,14.769,14.769V315.077z" fill="#5ca4da" data-original="#000000" style="" class=""/>
	</g>
</g>
<g xmlns="http://www.w3.org/2000/svg">
	<g>
		<path d="M354.462,231.385H236.308c-8.157,0-14.769,6.613-14.769,14.769s6.613,14.769,14.769,14.769h118.154    c8.157,0,14.769-6.613,14.769-14.769S362.618,231.385,354.462,231.385z" fill="#5ca4da" data-original="#000000" style="" class=""/>
	</g>
</g>
<g xmlns="http://www.w3.org/2000/svg">
	<g>
		<path d="M433.231,280.615H236.308c-8.157,0-14.769,6.613-14.769,14.769c0,8.156,6.613,14.769,14.769,14.769h196.923    c8.157,0,14.769-6.613,14.769-14.769C448,287.228,441.387,280.615,433.231,280.615z" fill="#5ca4da" data-original="#000000" style="" class=""/>
	</g>
</g>
<g xmlns="http://www.w3.org/2000/svg">
	<g>
		<path d="M433.231,329.846H236.308c-8.157,0-14.769,6.613-14.769,14.769c0,8.157,6.613,14.769,14.769,14.769h196.923    c8.157,0,14.769-6.613,14.769-14.769C448,336.459,441.387,329.846,433.231,329.846z" fill="#5ca4da" data-original="#000000" style="" class=""/>
	</g>
</g>
<g xmlns="http://www.w3.org/2000/svg">
</g>
<g xmlns="http://www.w3.org/2000/svg">
</g>
<g xmlns="http://www.w3.org/2000/svg">
</g>
<g xmlns="http://www.w3.org/2000/svg">
</g>
<g xmlns="http://www.w3.org/2000/svg">
</g>
<g xmlns="http://www.w3.org/2000/svg">
</g>
<g xmlns="http://www.w3.org/2000/svg">
</g>
<g xmlns="http://www.w3.org/2000/svg">
</g>
<g xmlns="http://www.w3.org/2000/svg">
</g>
<g xmlns="http://www.w3.org/2000/svg">
</g>
<g xmlns="http://www.w3.org/2000/svg">
</g>
<g xmlns="http://www.w3.org/2000/svg">
</g>
<g xmlns="http://www.w3.org/2000/svg">
</g>
<g xmlns="http://www.w3.org/2000/svg">
</g>
<g xmlns="http://www.w3.org/2000/svg">
</g>
</g></svg>
