<?xml version="1.0"?>
<svg xmlns="http://www.w3.org/2000/svg" xmlns:xlink="http://www.w3.org/1999/xlink" xmlns:svgjs="http://svgjs.com/svgjs" version="1.1" width="512" height="512" x="0" y="0" viewBox="0 0 64 64" style="enable-background:new 0 0 512 512" xml:space="preserve" class=""><g><path xmlns="http://www.w3.org/2000/svg" d="m29.03 5c.552 0 1-.447 1-1s-.448-1-1-1h-.01c-.552 0-.994.447-.994 1s.452 1 1.004 1z" fill="#5ca4da" data-original="#000000" style=""/><path xmlns="http://www.w3.org/2000/svg" d="m32 5h3c.553 0 1-.447 1-1s-.447-1-1-1h-3c-.553 0-1 .447-1 1s.447 1 1 1z" fill="#5ca4da" data-original="#000000" style=""/><path xmlns="http://www.w3.org/2000/svg" d="m50 57v-50.998c0-3.305-2.685-5.992-5.987-5.999-.004 0-.008-.003-.013-.003h-24c-3.309 0-6 2.691-6 6v51c0 3.859 3.141 7 7 7h22c3.859 0 7-3.141 7-7zm-2-7h-32v-41.998h32zm-32 2h16 16v1c0 2.757-2.243 5-5 5h-11-11c-2.757 0-5-2.243-5-5zm4-50h23.99c.004 0 .006.002.01.002 2.206 0 4 1.794 4 4h-32v-.002c0-2.206 1.794-4 4-4zm-3.9 55.99c1.264 1.241 2.994 2.01 4.9 2.01h22c1.906 0 3.636-.769 4.9-2.01-.462 2.284-2.482 4.01-4.9 4.01h-22c-2.418 0-4.438-1.726-4.9-4.01z" fill="#5ca4da" data-original="#000000" style=""/><path xmlns="http://www.w3.org/2000/svg" d="m29 55c0 1.654 1.346 3 3 3s3-1.346 3-3-1.346-3-3-3-3 1.346-3 3zm3-1c.552 0 1 .448 1 1s-.448 1-1 1-1-.448-1-1 .448-1 1-1z" fill="#5ca4da" data-original="#000000" style=""/><path xmlns="http://www.w3.org/2000/svg" d="m22.917 40.908c.029.027.047.064.08.089.04.03.087.044.13.067 2.488 1.835 5.551 2.934 8.873 2.934s6.385-1.099 8.873-2.934c.043-.023.09-.037.13-.067.033-.024.051-.062.08-.089 3.588-2.743 5.917-7.054 5.917-11.91 0-8.271-6.729-15-15-15s-15 6.729-15 15c0 4.856 2.329 9.167 5.917 11.91zm2.396-.782c.212-.077.434-.13.668-.132.007 0 .012.004.019.004h2.593l.7.7c.01.011.024.014.035.023.075.069.16.124.252.167.029.014.057.027.086.037.106.038.217.064.332.065h.002.001c.002 0 .003-.001.005-.001.14-.001.276-.037.406-.097.012-.005.023-.002.035-.008l1.553-.775 1.553.776c.012.006.023.003.035.008.13.06.267.096.406.097.002 0 .003.001.005.001h.001.002c.115-.001.226-.027.332-.065.029-.01.057-.023.086-.037.092-.043.177-.098.253-.168.01-.009.024-.013.034-.022l.7-.7h2.593c.007 0 .012-.004.019-.004.234.002.456.055.668.132-1.957 1.18-4.239 1.872-6.687 1.872s-4.729-.693-6.687-1.873zm12.564-14.877c-.457-.347-.889-.568-1.312-.694l.604-1.229c.331.591.574 1.237.708 1.923zm-3.579-.613c-.396.117-.806.271-1.242.443-1.66.658-3.919 1.523-8.036 1.031.201-3.403 3.025-6.112 6.479-6.112 1.641 0 3.136.615 4.281 1.62zm-8.298 3.58c3.881.256 6.193-.644 7.792-1.277 1.886-.747 2.446-.961 4.208 1.275v1.778c0 3.307-2.691 5.997-6 5.997s-6-2.69-6-5.997zm6 9.773c.691 0 1.359-.098 2-.263v.851l-.197.197-1.355-.678c-.022-.011-.046-.009-.068-.019-.063-.026-.128-.04-.196-.053-.062-.012-.121-.024-.183-.023-.063-.001-.121.012-.184.023-.067.013-.132.026-.196.053-.021.01-.046.008-.067.019l-1.355.678-.199-.197v-.851c.641.166 1.309.263 2 .263zm0-21.991c7.168 0 13 5.832 13 13 0 3.938-1.767 7.465-4.541 9.851-.694-.546-1.546-.856-2.459-.856-.011 0-.019.006-.029.006h-1.971v-1.091c2.386-1.385 3.997-3.959 4-6.908 0-.001 0-.001 0-.002v-3.5c0-2.197-.846-4.195-2.219-5.706-.023-.029-.049-.056-.075-.082-1.553-1.664-3.757-2.711-6.207-2.711-4.687 0-8.499 3.813-8.499 8.499 0 .086.028.163.049.242-.009.034-.03.063-.036.098-.087.546.286 1.058.831 1.144.055.009.102.011.156.019v1.998.002c.003 2.949 1.614 5.523 4 6.908v1.091h-1.971c-.011 0-.019-.006-.029-.006-.913 0-1.765.311-2.459.856-2.774-2.387-4.541-5.914-4.541-9.852 0-7.168 5.832-13 13-13z" fill="#5ca4da" data-original="#000000" style=""/><path xmlns="http://www.w3.org/2000/svg" d="m18 44.002h3c.553 0 1-.447 1-1s-.447-1-1-1h-2v-2.009c0-.553-.447-1-1-1s-1 .447-1 1v3.009c0 .553.447 1 1 1z" fill="#5ca4da" data-original="#000000" style=""/><path xmlns="http://www.w3.org/2000/svg" d="m18 19.007c.553 0 1-.447 1-1v-2h2.008c.553 0 1-.447 1-1s-.447-1-1-1h-3.008c-.553 0-1 .447-1 1v3c0 .553.447 1 1 1z" fill="#5ca4da" data-original="#000000" style=""/><path xmlns="http://www.w3.org/2000/svg" d="m46.006 38.992c-.553 0-1 .447-1 1v2.009h-2c-.553 0-1 .447-1 1s.447 1 1 1h3c.553 0 1-.447 1-1v-3.009c0-.553-.447-1-1-1z" fill="#5ca4da" data-original="#000000" style=""/><path xmlns="http://www.w3.org/2000/svg" d="m42.998 16.006h2.008v2c0 .553.447 1 1 1s1-.447 1-1v-3c0-.553-.447-1-1-1h-3.008c-.553 0-1 .447-1 1s.447 1 1 1z" fill="#5ca4da" data-original="#000000" style=""/></g></svg>
