<svg xmlns="http://www.w3.org/2000/svg" className="g-icon m-verified" aria-hidden="true" viewBox="0 0 24 24" width="24"  height="24" ><svg id="icon-verified" viewBox="0 0 24 24"> <path d="M23,12a1,1,0,0,0-.28-.7l-1.15-1.19a1,1,0,0,0-.72-.3,1,1,0,0,0-1,1,1,1,0,0,0,.28.69l.48.5-.69.72a4,4,0,0,0-1.14,2.78,3.43,3.43,0,0,0,0,.56l.14,1-1,.17a4,4,0,0,0-2.85,2.07l-.47.88-.91-.44a3.94,3.94,0,0,0-1.75-.4,4.15,4.15,0,0,0-1.76.4l-.9.44-.47-.88A4,4,0,0,0,6,17.23l-1-.17.14-1a3.39,3.39,0,0,0,0-.55,4,4,0,0,0-1.13-2.78L3.39,12l.69-.72A4,4,0,0,0,5.22,8.5a3.43,3.43,0,0,0,0-.56L5,6.94l1-.17A4,4,0,0,0,8.87,4.7l.47-.88.91.44a3.94,3.94,0,0,0,1.75.4,4.15,4.15,0,0,0,1.76-.4l.9-.44.46.86a1,1,0,0,0,1.93-.39,1,1,0,0,0-.18-.57L16,2a1,1,0,0,0-.88-.53,1,1,0,0,0-.44.1l-1.76.87a2.14,2.14,0,0,1-.89.2,2.06,2.06,0,0,1-.88-.2L9.35,1.59A1,1,0,0,0,8,2L7.11,3.76a2,2,0,0,1-1.43,1l-1.94.34a1,1,0,0,0-.83,1,.66.66,0,0,0,0,.14l.28,2a2.64,2.64,0,0,1,0,.28,2,2,0,0,1-.57,1.39L1.28,11.31a1,1,0,0,0,0,1.38l1.38,1.43a2,2,0,0,1,.56,1.38,2.64,2.64,0,0,1,0,.28l-.28,2a.66.66,0,0,0,0,.14,1,1,0,0,0,.83,1l1.94.34a2,2,0,0,1,1.43,1L8,22a1,1,0,0,0,1.32.43l1.76-.87a2.14,2.14,0,0,1,.89-.2,2.06,2.06,0,0,1,.88.2l1.77.87a1,1,0,0,0,.44.1A1,1,0,0,0,16,22l.92-1.74a2,2,0,0,1,1.43-1l1.94-.34a1,1,0,0,0,.83-1,.66.66,0,0,0,0-.14l-.28-2a2.64,2.64,0,0,1,0-.28,2,2,0,0,1,.57-1.39l1.37-1.42A1,1,0,0,0,23,12ZM9.71,10.29A1,1,0,0,0,9,10a1,1,0,0,0-1,1,1,1,0,0,0,.29.71L12,15.41l9.71-9.7A1,1,0,0,0,22,5a1,1,0,0,0-1-1,1,1,0,0,0-.71.29L12,12.59Z"></path> </svg></svg>