<svg width="24" height="24" viewBox="0 0 24 24" fill="none" xmlns="http://www.w3.org/2000/svg">
<path d="M8 6C8 5.60444 7.8827 5.21776 7.66294 4.88886C7.44318 4.55996 7.13082 4.30362 6.76537 4.15224C6.39992 4.00087 5.99778 3.96126 5.60982 4.03843C5.22186 4.1156 4.86549 4.30608 4.58579 4.58579C4.30608 4.86549 4.1156 5.22186 4.03843 5.60982C3.96126 5.99778 4.00087 6.39992 4.15224 6.76537C4.30362 7.13082 4.55996 7.44318 4.88886 7.66294C5.21776 7.8827 5.60444 8 6 8C6.53043 8 7.03914 7.78929 7.41421 7.41421C7.78929 7.03914 8 6.53043 8 6ZM8 18C8 17.6044 7.8827 17.2178 7.66294 16.8889C7.44318 16.56 7.13082 16.3036 6.76537 16.1522C6.39992 16.0009 5.99778 15.9613 5.60982 16.0384C5.22186 16.1156 4.86549 16.3061 4.58579 16.5858C4.30608 16.8655 4.1156 17.2219 4.03843 17.6098C3.96126 17.9978 4.00087 18.3999 4.15224 18.7654C4.30362 19.1308 4.55996 19.4432 4.88886 19.6629C5.21776 19.8827 5.60444 20 6 20C6.53043 20 7.03914 19.7893 7.41421 19.4142C7.78929 19.0391 8 18.5304 8 18ZM8 12C8 11.6044 7.8827 11.2178 7.66294 10.8889C7.44318 10.56 7.13082 10.3036 6.76537 10.1522C6.39992 10.0009 5.99778 9.96126 5.60982 10.0384C5.22186 10.1156 4.86549 10.3061 4.58579 10.5858C4.30608 10.8655 4.1156 11.2219 4.03843 11.6098C3.96126 11.9978 4.00087 12.3999 4.15224 12.7654C4.30362 13.1308 4.55996 13.4432 4.88886 13.6629C5.21776 13.8827 5.60444 14 6 14C6.53043 14 7.03914 13.7893 7.41421 13.4142C7.78929 13.0391 8 12.5304 8 12Z" fill="white"/>
</svg>
