<?xml version="1.0" encoding="UTF-8"?>
<svg xmlns="http://www.w3.org/2000/svg" xmlns:xlink="http://www.w3.org/1999/xlink" width="15pt" height="15pt" viewBox="0 0 15 15" version="1.1">
<g id="surface1">
<path style=" stroke:none;fill-rule:nonzero;fill:rgb(0%,0%,0%);fill-opacity:1;" d="M 6.964844 6.964844 L 0.148438 13.777344 L 0.6875 14.3125 L 1.222656 14.851562 L 2.5 13.570312 L 3.785156 12.289062 L 6.855469 12.28125 C 10.292969 12.265625 10.089844 12.285156 10.515625 11.996094 C 10.785156 11.820312 11.011719 11.515625 11.105469 11.207031 C 11.167969 11.007812 11.179688 10.871094 11.179688 10.320312 C 11.179688 9.90625 11.195312 9.671875 11.214844 9.671875 C 11.238281 9.671875 11.714844 9.898438 12.277344 10.183594 C 13.464844 10.78125 13.542969 10.796875 13.867188 10.628906 C 14.015625 10.550781 14.097656 10.472656 14.175781 10.34375 L 14.285156 10.167969 L 14.285156 5.101562 L 14.175781 4.929688 C 14.097656 4.796875 14.015625 4.722656 13.867188 4.644531 C 13.542969 4.472656 13.464844 4.492188 12.277344 5.089844 C 11.714844 5.371094 11.238281 5.601562 11.214844 5.601562 C 11.195312 5.601562 11.179688 5.460938 11.179688 5.25 L 11.179688 4.890625 L 13.015625 3.058594 L 14.851562 1.222656 L 13.777344 0.148438 Z M 9.652344 8.597656 L 9.652344 10.761719 L 7.507812 10.761719 C 6.332031 10.761719 5.363281 10.75 5.363281 10.734375 C 5.363281 10.710938 9.621094 6.4375 9.640625 6.4375 C 9.648438 6.4375 9.652344 7.410156 9.652344 8.597656 Z M 12.777344 7.636719 C 12.777344 8.234375 12.765625 8.726562 12.753906 8.722656 C 12.734375 8.722656 12.382812 8.542969 11.960938 8.335938 L 11.199219 7.945312 L 11.199219 7.328125 L 11.960938 6.9375 C 12.382812 6.722656 12.734375 6.550781 12.753906 6.550781 C 12.769531 6.546875 12.777344 7.035156 12.777344 7.636719 Z M 12.777344 7.636719 "/>
<path style=" stroke:none;fill-rule:nonzero;fill:rgb(0%,0%,0%);fill-opacity:1;" d="M 3.203125 3.023438 C 2.769531 3.085938 2.292969 3.429688 2.097656 3.8125 C 1.914062 4.175781 1.914062 4.1875 1.914062 7.074219 L 1.914062 9.761719 L 2.675781 9 L 3.4375 8.234375 L 3.4375 4.511719 L 7.164062 4.511719 L 7.925781 3.746094 L 8.691406 2.984375 L 6.054688 2.988281 C 4.605469 2.992188 3.324219 3.007812 3.203125 3.023438 Z M 3.203125 3.023438 "/>
</g>
</svg>
