<?xml version="1.0" encoding="UTF-8"?>
<svg xmlns="http://www.w3.org/2000/svg" xmlns:xlink="http://www.w3.org/1999/xlink" width="16pt" height="16pt" viewBox="0 0 16 16" version="1.1">
<g id="surface1">
<path style=" stroke:none;fill-rule:nonzero;fill:#E85DBE;fill-opacity:1;" d="M 7.925781 10.433594 C 7.476562 10.433594 7.113281 10.796875 7.113281 11.246094 C 7.113281 11.695312 7.476562 12.058594 7.925781 12.058594 C 8.375 12.058594 8.738281 11.695312 8.738281 11.246094 C 8.738281 10.796875 8.375 10.433594 7.925781 10.433594 Z M 7.925781 11.433594 C 7.820312 11.433594 7.738281 11.351562 7.738281 11.246094 C 7.738281 11.144531 7.820312 11.058594 7.925781 11.058594 C 8.027344 11.058594 8.113281 11.144531 8.113281 11.246094 C 8.113281 11.351562 8.027344 11.433594 7.925781 11.433594 Z M 7.925781 11.433594 "/>
<path style=" stroke:none;fill-rule:nonzero;fill:#E85DBE;fill-opacity:1;" d="M 10.433594 9.398438 C 10.375 9.339844 10.296875 9.308594 10.210938 9.308594 C 10.128906 9.308594 10.050781 9.339844 9.992188 9.398438 C 9.933594 9.457031 9.898438 9.539062 9.898438 9.621094 C 9.898438 9.703125 9.933594 9.78125 9.992188 9.839844 C 10.050781 9.898438 10.128906 9.933594 10.210938 9.933594 C 10.296875 9.933594 10.375 9.898438 10.433594 9.839844 C 10.492188 9.78125 10.523438 9.703125 10.523438 9.621094 C 10.523438 9.539062 10.492188 9.457031 10.433594 9.398438 Z M 10.433594 9.398438 "/>
<path style=" stroke:none;fill-rule:nonzero;fill:#E85DBE;fill-opacity:1;" d="M 14.4375 4.5 L 14.101562 4.5 L 9.691406 0.0898438 C 9.570312 -0.03125 9.371094 -0.03125 9.25 0.0898438 L 8.121094 1.222656 L 3.605469 0.0117188 C 3.4375 -0.0351562 3.265625 0.0664062 3.222656 0.230469 L 2.078125 4.5 L 1.3125 4.5 C 0.589844 4.5 0 5.089844 0 5.8125 C 0 5.828125 0 5.847656 0 5.863281 C 0 5.871094 0 5.882812 0 5.890625 L 0 14.4375 C 0 15.300781 0.699219 16 1.5625 16 L 12.75 16 C 12.753906 16 12.757812 16 12.765625 16 L 14.4375 16 C 15.296875 16 16 15.296875 16 14.4375 L 16 6.0625 C 16 5.199219 15.300781 4.5 14.4375 4.5 Z M 14.15625 5.125 L 14.4375 5.125 C 14.953125 5.125 15.375 5.546875 15.375 6.0625 L 15.375 8.566406 C 15.375 8.976562 15.042969 9.308594 14.632812 9.308594 L 14.3125 9.308594 L 14.3125 8.0625 C 14.3125 7.210938 13.628906 6.519531 12.78125 6.5 Z M 8.4375 1.789062 L 9.472656 0.753906 L 13.558594 4.839844 L 11.910156 6.488281 L 11.335938 6.488281 L 12.085938 5.742188 C 12.207031 5.621094 12.207031 5.421875 12.085938 5.300781 C 11.832031 5.046875 11.832031 4.636719 12.085938 4.382812 C 12.207031 4.261719 12.207031 4.0625 12.085938 3.941406 L 10.371094 2.226562 C 10.25 2.105469 10.050781 2.105469 9.929688 2.226562 C 9.675781 2.480469 9.265625 2.480469 9.011719 2.226562 C 8.890625 2.105469 8.691406 2.105469 8.570312 2.226562 L 4.308594 6.488281 L 3.738281 6.488281 Z M 7.515625 5.316406 C 6.800781 5.316406 6.203125 5.820312 6.058594 6.488281 L 5.191406 6.488281 L 8.820312 2.863281 C 9.21875 3.101562 9.722656 3.101562 10.125 2.863281 L 11.449219 4.1875 C 11.210938 4.589844 11.210938 5.09375 11.449219 5.492188 L 10.453125 6.488281 L 8.972656 6.488281 C 8.828125 5.820312 8.230469 5.316406 7.515625 5.316406 Z M 8.320312 6.488281 L 6.710938 6.488281 C 6.835938 6.167969 7.148438 5.941406 7.515625 5.941406 C 7.882812 5.941406 8.195312 6.167969 8.320312 6.488281 Z M 3.40625 5.9375 L 4.234375 2.847656 C 4.460938 2.851562 4.6875 2.792969 4.886719 2.675781 C 5.089844 2.558594 5.253906 2.394531 5.363281 2.195312 L 6.769531 2.570312 L 4.730469 4.613281 Z M 3.746094 0.695312 L 7.609375 1.730469 L 7.28125 2.0625 L 5.261719 1.519531 C 5.179688 1.5 5.097656 1.511719 5.023438 1.550781 C 4.953125 1.59375 4.898438 1.660156 4.878906 1.742188 C 4.832031 1.910156 4.726562 2.046875 4.578125 2.136719 C 4.425781 2.222656 4.25 2.246094 4.082031 2.199219 C 3.917969 2.15625 3.746094 2.253906 3.699219 2.421875 L 2.609375 6.5 L 2.191406 6.5 Z M 1.3125 5.125 L 1.910156 5.125 L 1.542969 6.5 L 1.3125 6.5 C 0.933594 6.5 0.625 6.191406 0.625 5.8125 C 0.625 5.433594 0.933594 5.125 1.3125 5.125 Z M 15.375 14.4375 C 15.375 14.953125 14.953125 15.375 14.4375 15.375 L 14 15.375 C 14.195312 15.113281 14.3125 14.789062 14.3125 14.4375 L 14.3125 13.183594 L 14.5 13.183594 C 14.828125 13.183594 15.128906 13.078125 15.375 12.898438 Z M 15.375 11.683594 C 15.375 12.164062 14.980469 12.558594 14.5 12.558594 L 7.9375 12.558594 C 7.214844 12.558594 6.625 11.96875 6.625 11.246094 C 6.625 10.519531 7.214844 9.933594 7.9375 9.933594 L 8.882812 9.933594 C 9.058594 9.933594 9.195312 9.792969 9.195312 9.621094 C 9.195312 9.445312 9.058594 9.308594 8.882812 9.308594 L 7.9375 9.308594 C 6.871094 9.308594 6 10.175781 6 11.246094 C 6 12.3125 6.871094 13.183594 7.9375 13.183594 L 13.6875 13.183594 L 13.6875 14.4375 C 13.6875 14.949219 13.273438 15.367188 12.765625 15.375 L 2.125 15.375 L 2.125 11.855469 C 2.125 11.683594 1.984375 11.542969 1.8125 11.542969 C 1.640625 11.542969 1.5 11.683594 1.5 11.855469 L 1.5 15.371094 C 1.011719 15.339844 0.625 14.933594 0.625 14.4375 L 0.625 6.929688 C 0.824219 7.054688 1.0625 7.125 1.3125 7.125 L 12.75 7.125 C 13.265625 7.125 13.6875 7.546875 13.6875 8.0625 L 13.6875 9.308594 L 11.429688 9.308594 C 11.253906 9.308594 11.117188 9.445312 11.117188 9.621094 C 11.117188 9.792969 11.253906 9.933594 11.429688 9.933594 L 14.632812 9.933594 C 14.90625 9.933594 15.160156 9.851562 15.375 9.714844 Z M 15.375 11.683594 "/>
<path style=" stroke:none;fill-rule:nonzero;fill:#E85DBE;fill-opacity:1;" d="M 2.035156 10.417969 C 1.976562 10.359375 1.894531 10.324219 1.8125 10.324219 C 1.730469 10.324219 1.648438 10.359375 1.589844 10.417969 C 1.535156 10.472656 1.5 10.554688 1.5 10.636719 C 1.5 10.71875 1.535156 10.800781 1.589844 10.859375 C 1.648438 10.917969 1.730469 10.949219 1.8125 10.949219 C 1.894531 10.949219 1.976562 10.917969 2.035156 10.859375 C 2.089844 10.800781 2.125 10.71875 2.125 10.636719 C 2.125 10.554688 2.089844 10.472656 2.035156 10.417969 Z M 2.035156 10.417969 "/>
</g>
</svg>
