<svg xmlns="http://www.w3.org/2000/svg" className="g-icon" aria-hidden="true" viewBox="0 0 24 24" width="24"  height="24" ><svg id="icon-alert" viewBox="0 0 24 24"> <path d="M22.56 18.34A2.63 2.63 0 0 0 22.2 17L14.3 3.33a2.65 2.65 0 0 0-4.6 0L1.8 17a2.63 2.63 0 0 0-.36 1.33A2.66 2.66 0 0 0 4.1 21h15.8a2.66 2.66 0 0 0 2.66-2.66zm-2 0a.66.66 0 0 1-.66.66H4.1a.66.66 0 0 1-.66-.66.63.63 0 0 1 .09-.34l7.9-13.68a.68.68 0 0 1 1.14 0L20.47 18a.63.63 0 0 1 .09.34zM12 13.5a1 1 0 0 0 1-1v-4a1 1 0 0 0-2 0v4a1 1 0 0 0 1 1zm0 1.1a1.4 1.4 0 1 0 1.4 1.4 1.4 1.4 0 0 0-1.4-1.4z"></path> </svg></svg>