<svg width="659" height="483" viewBox="0 0 659 483" fill="none" xmlns="http://www.w3.org/2000/svg">
<g clip-path="url(#clip0)">
<path d="M285.092 196.861C280.406 196.858 275.784 197.942 271.588 200.028C267.392 202.115 263.738 205.146 260.912 208.885C257.88 207.58 254.571 207.048 251.282 207.338C247.993 207.628 244.828 208.729 242.07 210.544C239.312 212.36 237.049 214.831 235.482 217.737C233.915 220.643 233.095 223.892 233.094 227.194H315.425C315.425 223.211 314.64 219.266 313.116 215.586C311.592 211.906 309.357 208.562 306.541 205.746C303.724 202.929 300.38 200.695 296.7 199.17C293.02 197.646 289.076 196.861 285.092 196.861Z" fill="#E6E6E6"/>
<path d="M398.826 175.871H38.4934C33.6747 175.878 29.0552 177.795 25.6479 181.203C22.2405 184.61 20.3232 189.229 20.3164 194.048V464.565C20.3232 469.383 22.2405 474.003 25.6479 477.41C29.0552 480.818 33.6747 482.735 38.4934 482.742H398.826C403.645 482.735 408.264 480.818 411.671 477.41C415.079 474.003 416.996 469.383 417.003 464.565V194.048C416.996 189.229 415.079 184.61 411.671 181.203C408.264 177.795 403.645 175.878 398.826 175.871V175.871ZM414.864 464.565C414.859 468.817 413.168 472.893 410.161 475.9C407.154 478.907 403.078 480.598 398.826 480.603H38.4934C34.2413 480.598 30.1648 478.907 27.1581 475.9C24.1515 472.893 22.46 468.817 22.4549 464.565V194.048C22.46 189.796 24.1515 185.72 27.1581 182.713C30.1648 179.706 34.2413 178.015 38.4934 178.01H398.826C403.078 178.015 407.154 179.706 410.161 182.713C413.168 185.72 414.859 189.796 414.864 194.048V464.565Z" fill="#3F3D56"/>
<path d="M80.7273 370.471C125.312 370.471 161.455 334.328 161.455 289.744C161.455 245.159 125.312 209.017 80.7273 209.017C36.1428 209.017 0 245.159 0 289.744C0 334.328 36.1428 370.471 80.7273 370.471Z" fill="#0091EA"/>
<path d="M417.003 404.762V427.141H20.3164V404.655L22.4549 401.575L148.219 220.479C148.789 219.657 149.55 218.986 150.436 218.522C151.322 218.059 152.308 217.816 153.308 217.816C154.308 217.816 155.294 218.059 156.18 218.522C157.066 218.986 157.827 219.657 158.398 220.479L242.739 341.912L302.776 256.223C303.348 255.406 304.108 254.739 304.992 254.278C305.876 253.818 306.858 253.577 307.855 253.577C308.852 253.577 309.835 253.818 310.719 254.278C311.603 254.739 312.363 255.406 312.934 256.223L414.864 401.704L417.003 404.762Z" fill="#3F3D56"/>
<path d="M107.458 452.803H44.3726C44.0896 452.802 43.8185 452.689 43.6187 452.488C43.4188 452.288 43.3066 452.016 43.3066 451.733C43.3066 451.45 43.4188 451.179 43.6187 450.978C43.8185 450.778 44.0896 450.665 44.3726 450.664H107.458C107.741 450.664 108.013 450.777 108.214 450.977C108.414 451.178 108.527 451.45 108.527 451.733C108.527 452.017 108.414 452.289 108.214 452.489C108.013 452.69 107.741 452.803 107.458 452.803V452.803Z" fill="#3F3D56"/>
<path d="M202.62 452.803H139.535C139.395 452.803 139.255 452.776 139.125 452.722C138.995 452.669 138.877 452.59 138.777 452.491C138.678 452.391 138.599 452.273 138.545 452.143C138.491 452.013 138.463 451.874 138.463 451.733C138.463 451.593 138.491 451.453 138.545 451.323C138.599 451.193 138.678 451.075 138.777 450.976C138.877 450.877 138.995 450.798 139.125 450.745C139.255 450.691 139.395 450.664 139.535 450.664H202.62C202.904 450.664 203.176 450.777 203.376 450.977C203.577 451.178 203.69 451.45 203.69 451.733C203.69 452.017 203.577 452.289 203.376 452.489C203.176 452.69 202.904 452.803 202.62 452.803V452.803Z" fill="#3F3D56"/>
<path d="M297.782 452.803H234.697C234.414 452.802 234.143 452.689 233.943 452.488C233.743 452.288 233.631 452.016 233.631 451.733C233.631 451.45 233.743 451.179 233.943 450.978C234.143 450.778 234.414 450.665 234.697 450.664H297.782C298.065 450.664 298.337 450.777 298.538 450.977C298.738 451.178 298.851 451.45 298.851 451.733C298.851 452.017 298.738 452.289 298.538 452.489C298.337 452.69 298.065 452.803 297.782 452.803V452.803Z" fill="#3F3D56"/>
<path d="M392.944 452.803H329.859C329.576 452.802 329.305 452.689 329.105 452.488C328.905 452.288 328.793 452.016 328.793 451.733C328.793 451.45 328.905 451.179 329.105 450.978C329.305 450.778 329.576 450.665 329.859 450.664H392.944C393.227 450.664 393.499 450.777 393.7 450.977C393.9 451.178 394.013 451.45 394.013 451.733C394.013 452.017 393.9 452.289 393.7 452.489C393.499 452.69 393.227 452.803 392.944 452.803V452.803Z" fill="#3F3D56"/>
<path d="M577.959 237.015C654.143 168.067 681.209 73.8404 638.414 26.554C595.619 -20.7325 499.168 -3.17249 422.984 65.7753C346.8 134.723 319.733 228.949 362.529 276.236C405.324 323.522 501.775 305.962 577.959 237.015Z" fill="#E6E6E6"/>
<path d="M356.302 425.76C346.028 404.537 342.39 380.624 344.179 357.211C346.12 333.946 352.983 311.359 364.314 290.948C375.135 271.163 389.437 253.453 405.694 237.88C422.948 221.352 442.404 207.321 462.875 195.058C484.491 182.108 507.205 171.104 530.184 160.808C533.047 159.525 535.915 158.251 538.788 156.988C540.673 156.158 539.042 153.393 537.169 154.218C513.741 164.534 490.511 175.404 468.296 188.16C447.074 200.345 426.77 214.285 408.63 230.758C391.708 246.125 376.627 263.704 364.934 283.387C352.775 303.567 344.89 326.029 341.769 349.382C338.773 372.9 341.089 397.356 350.005 419.422C351.092 422.113 352.268 424.765 353.532 427.379C354.431 429.236 357.198 427.612 356.302 425.76V425.76Z" fill="#CCCCCC"/>
<path d="M444.782 203.238C443.722 185.748 445.038 168.196 448.694 151.06C452.34 133.915 458.257 117.333 466.289 101.753C470.811 93.0066 475.992 84.6178 481.789 76.6593C483.006 74.9886 480.224 73.3862 479.019 75.0403C468.604 89.3863 460.174 105.073 453.957 121.675C447.725 138.279 443.727 155.638 442.067 173.295C441.13 183.248 440.965 193.259 441.574 203.238C441.699 205.289 444.908 205.303 444.782 203.238V203.238Z" fill="#CCCCCC"/>
<path d="M220.262 247.51C214.48 247.505 208.777 248.843 203.6 251.417C198.423 253.991 193.915 257.732 190.429 262.344C186.688 260.734 182.605 260.078 178.547 260.435C174.49 260.793 170.585 262.152 167.182 264.392C163.78 266.631 160.987 269.68 159.054 273.265C157.121 276.851 156.108 280.86 156.107 284.933H257.685C257.685 280.019 256.717 275.152 254.836 270.612C252.955 266.071 250.199 261.946 246.724 258.471C243.249 254.996 239.123 252.239 234.583 250.358C230.042 248.478 225.176 247.51 220.262 247.51V247.51Z" fill="#CCCCCC"/>
<path d="M80.4453 132H75.7334L57.8379 104.607V132H53.126V96.4531H57.8379L75.7822 123.968V96.4531H80.4453V132ZM86.8662 118.548C86.8662 115.96 87.3708 113.632 88.3799 111.565C89.4053 109.498 90.8213 107.903 92.6279 106.78C94.4508 105.657 96.526 105.096 98.8535 105.096C102.451 105.096 105.356 106.341 107.569 108.831C109.799 111.321 110.914 114.633 110.914 118.768V119.085C110.914 121.657 110.418 123.968 109.425 126.019C108.448 128.053 107.04 129.64 105.201 130.779C103.378 131.919 101.279 132.488 98.9023 132.488C95.3216 132.488 92.4163 131.243 90.1865 128.753C87.973 126.263 86.8662 122.967 86.8662 118.865V118.548ZM91.4072 119.085C91.4072 122.015 92.0827 124.367 93.4336 126.141C94.8008 127.915 96.6237 128.802 98.9023 128.802C101.197 128.802 103.02 127.907 104.371 126.116C105.722 124.31 106.397 121.787 106.397 118.548C106.397 115.651 105.706 113.307 104.322 111.517C102.955 109.71 101.132 108.807 98.8535 108.807C96.6237 108.807 94.8252 109.694 93.458 111.468C92.0908 113.242 91.4072 115.781 91.4072 119.085ZM127.882 118.572C127.882 114.52 128.842 111.264 130.763 108.807C132.683 106.333 135.198 105.096 138.307 105.096C141.399 105.096 143.849 106.154 145.655 108.27V94.5H150.172V132H146.021L145.802 129.168C143.995 131.382 141.48 132.488 138.258 132.488C135.198 132.488 132.7 131.235 130.763 128.729C128.842 126.222 127.882 122.951 127.882 118.914V118.572ZM132.398 119.085C132.398 122.08 133.017 124.424 134.254 126.116C135.491 127.809 137.2 128.655 139.381 128.655C142.245 128.655 144.337 127.369 145.655 124.798V112.664C144.304 110.174 142.229 108.929 139.43 108.929C137.216 108.929 135.491 109.783 134.254 111.492C133.017 113.201 132.398 115.732 132.398 119.085ZM173.512 132C173.251 131.479 173.04 130.551 172.877 129.217C170.777 131.398 168.271 132.488 165.357 132.488C162.753 132.488 160.613 131.756 158.937 130.291C157.276 128.81 156.446 126.938 156.446 124.676C156.446 121.925 157.488 119.793 159.571 118.279C161.671 116.749 164.617 115.984 168.409 115.984H172.804V113.909C172.804 112.33 172.332 111.077 171.388 110.149C170.444 109.205 169.052 108.733 167.213 108.733C165.602 108.733 164.251 109.14 163.16 109.954C162.07 110.768 161.524 111.753 161.524 112.908H156.983C156.983 111.59 157.447 110.32 158.375 109.1C159.319 107.863 160.589 106.886 162.184 106.17C163.795 105.454 165.561 105.096 167.481 105.096C170.525 105.096 172.91 105.861 174.635 107.391C176.36 108.904 177.255 110.996 177.32 113.665V125.823C177.32 128.248 177.63 130.177 178.248 131.609V132H173.512ZM166.017 128.558C167.433 128.558 168.775 128.191 170.045 127.459C171.314 126.727 172.234 125.774 172.804 124.603V119.183H169.264C163.73 119.183 160.963 120.802 160.963 124.041C160.963 125.457 161.435 126.564 162.379 127.361C163.323 128.159 164.535 128.558 166.017 128.558ZM190.528 99.1875V105.584H195.46V109.075H190.528V125.457C190.528 126.515 190.748 127.312 191.188 127.85C191.627 128.37 192.376 128.631 193.434 128.631C193.954 128.631 194.671 128.533 195.582 128.338V132C194.394 132.326 193.238 132.488 192.115 132.488C190.097 132.488 188.575 131.878 187.55 130.657C186.524 129.437 186.012 127.703 186.012 125.457V109.075H181.202V105.584H186.012V99.1875H190.528ZM217.066 132C216.806 131.479 216.594 130.551 216.432 129.217C214.332 131.398 211.826 132.488 208.912 132.488C206.308 132.488 204.168 131.756 202.491 130.291C200.831 128.81 200.001 126.938 200.001 124.676C200.001 121.925 201.043 119.793 203.126 118.279C205.226 116.749 208.172 115.984 211.964 115.984H216.358V113.909C216.358 112.33 215.886 111.077 214.942 110.149C213.998 109.205 212.607 108.733 210.768 108.733C209.156 108.733 207.805 109.14 206.715 109.954C205.624 110.768 205.079 111.753 205.079 112.908H200.538C200.538 111.59 201.002 110.32 201.93 109.1C202.874 107.863 204.143 106.886 205.738 106.17C207.35 105.454 209.116 105.096 211.036 105.096C214.08 105.096 216.464 105.861 218.189 107.391C219.915 108.904 220.81 110.996 220.875 113.665V125.823C220.875 128.248 221.184 130.177 221.803 131.609V132H217.066ZM209.571 128.558C210.987 128.558 212.33 128.191 213.6 127.459C214.869 126.727 215.789 125.774 216.358 124.603V119.183H212.818C207.285 119.183 204.518 120.802 204.518 124.041C204.518 125.457 204.99 126.564 205.934 127.361C206.878 128.159 208.09 128.558 209.571 128.558ZM242.579 132V109.075H238.404V105.584H242.579V102.874C242.579 100.042 243.336 97.8529 244.85 96.3066C246.363 94.7604 248.504 93.9873 251.271 93.9873C252.312 93.9873 253.346 94.1257 254.371 94.4023L254.127 98.0645C253.362 97.918 252.548 97.8447 251.686 97.8447C250.221 97.8447 249.09 98.276 248.292 99.1387C247.494 99.985 247.096 101.206 247.096 102.801V105.584H252.735V109.075H247.096V132H242.579ZM256.544 118.548C256.544 115.96 257.049 113.632 258.058 111.565C259.083 109.498 260.499 107.903 262.306 106.78C264.129 105.657 266.204 105.096 268.531 105.096C272.128 105.096 275.034 106.341 277.247 108.831C279.477 111.321 280.592 114.633 280.592 118.768V119.085C280.592 121.657 280.095 123.968 279.103 126.019C278.126 128.053 276.718 129.64 274.879 130.779C273.056 131.919 270.956 132.488 268.58 132.488C264.999 132.488 262.094 131.243 259.864 128.753C257.651 126.263 256.544 122.967 256.544 118.865V118.548ZM261.085 119.085C261.085 122.015 261.76 124.367 263.111 126.141C264.479 127.915 266.301 128.802 268.58 128.802C270.875 128.802 272.698 127.907 274.049 126.116C275.4 124.31 276.075 121.787 276.075 118.548C276.075 115.651 275.383 113.307 274 111.517C272.633 109.71 270.81 108.807 268.531 108.807C266.301 108.807 264.503 109.694 263.136 111.468C261.769 113.242 261.085 115.781 261.085 119.085ZM302.564 129.388C300.807 131.455 298.227 132.488 294.825 132.488C292.009 132.488 289.861 131.674 288.38 130.047C286.915 128.403 286.174 125.978 286.158 122.771V105.584H290.675V122.649C290.675 126.653 292.302 128.655 295.558 128.655C299.008 128.655 301.303 127.369 302.442 124.798V105.584H306.959V132H302.662L302.564 129.388ZM318.116 105.584L318.263 108.904C320.281 106.365 322.918 105.096 326.173 105.096C331.756 105.096 334.571 108.245 334.62 114.544V132H330.104V114.52C330.087 112.615 329.648 111.207 328.785 110.296C327.939 109.384 326.612 108.929 324.806 108.929C323.341 108.929 322.055 109.319 320.948 110.101C319.841 110.882 318.979 111.907 318.36 113.177V132H313.844V105.584H318.116ZM340.333 118.572C340.333 114.52 341.293 111.264 343.214 108.807C345.134 106.333 347.649 105.096 350.758 105.096C353.85 105.096 356.3 106.154 358.106 108.27V94.5H362.623V132H358.473L358.253 129.168C356.446 131.382 353.932 132.488 350.709 132.488C347.649 132.488 345.151 131.235 343.214 128.729C341.293 126.222 340.333 122.951 340.333 118.914V118.572ZM344.85 119.085C344.85 122.08 345.468 124.424 346.705 126.116C347.942 127.809 349.651 128.655 351.832 128.655C354.697 128.655 356.788 127.369 358.106 124.798V112.664C356.756 110.174 354.68 108.929 351.881 108.929C349.667 108.929 347.942 109.783 346.705 111.492C345.468 113.201 344.85 115.732 344.85 119.085Z" fill="#0091EA"/>
</g>
<defs>
<clipPath id="clip0">
<rect width="658.717" height="482.741" fill="white"/>
</clipPath>
</defs>
</svg>
