<svg width="921" height="516" viewBox="0 0 921 516" fill="none" xmlns="http://www.w3.org/2000/svg">
<g clip-path="url(#clip0)">
<path d="M193.678 513.126H53.0784C53.0784 513.126 50.2284 471.326 67.0904 470.851C83.9524 470.376 82.0524 489.376 103.19 463.251C124.328 437.126 149.977 438.551 153.302 453.989C156.627 469.427 146.89 481.776 164.702 477.976C182.514 474.176 208.165 484.151 193.678 513.126Z" fill="#E6E6E6"/>
<path d="M121.006 513.135L120.531 513.116C121.638 485.596 127.401 467.916 132.042 457.926C137.08 447.082 141.935 442.692 141.984 442.649L142.3 443.004C142.252 443.047 137.454 447.393 132.456 458.164C127.841 468.108 122.109 485.718 121.006 513.135Z" fill="white"/>
<path d="M171.892 513.191L171.436 513.058C174.972 501.395 181.346 490.79 189.987 482.195L190.306 482.547C181.729 491.083 175.402 501.611 171.892 513.191Z" fill="white"/>
<path d="M75.2257 513.159L74.7547 513.094C76.2878 502.776 74.6658 492.236 70.1017 482.856C68.2308 478.922 65.754 475.306 62.7617 472.14L63.0907 471.797C66.1235 475.001 68.6343 478.662 70.5317 482.645C75.1369 492.11 76.7731 502.747 75.2257 513.159V513.159Z" fill="white"/>
<path d="M212.76 513.761H37.9146L37.8746 513.168C37.7746 511.695 35.5436 476.941 46.8046 464.54C47.9219 463.229 49.301 462.168 50.8533 461.423C52.4056 460.678 54.0967 460.266 55.8176 460.214C63.1576 460.005 67.7706 462.755 71.4916 464.961C78.5046 469.121 83.1366 471.87 99.9816 451.051C118.229 428.498 137.918 423.646 149.236 426.344C156.549 428.088 161.589 433.014 163.064 439.863C164.464 446.348 164.016 452.442 163.658 457.339C163.275 462.578 162.973 466.714 165.125 468.59C166.925 470.155 170.506 470.298 176.406 469.039C188.406 466.479 205.154 468.668 213.559 479.529C218.081 485.372 221.644 495.993 212.936 513.41L212.76 513.761ZM39.1076 512.49H211.973C218.462 499.325 218.665 488.203 212.554 480.308C204.843 470.345 188.666 467.723 176.671 470.282C170.26 471.65 166.441 471.424 164.29 469.55C161.659 467.258 161.982 462.84 162.39 457.25C162.742 452.435 163.179 446.441 161.821 440.134C160.453 433.783 155.758 429.209 148.94 427.584C137.983 424.97 118.84 429.76 100.969 451.853C83.4346 473.525 78.1516 470.393 70.8426 466.053C67.0756 463.819 62.7996 461.286 55.8526 461.483C54.3032 461.533 52.7814 461.907 51.385 462.58C49.9886 463.253 48.7486 464.211 47.7446 465.392C37.6266 476.538 38.8606 507.791 39.1086 512.49H39.1076Z" fill="#2F2E41"/>
<path d="M784.06 514.466H611.844L611.811 513.501L603.588 278.321H792.315L784.06 514.466ZM613.776 512.466H782.128L790.245 280.321H605.658L613.776 512.466Z" fill="#3F3D56"/>
<path d="M652.925 321.896H639.826V483.993H652.925V321.896Z" fill="#3F3D56"/>
<path d="M704.501 321.896H691.402V483.993H704.501V321.896Z" fill="#3F3D56"/>
<path d="M756.078 321.896H742.979V483.993H756.078V321.896Z" fill="#3F3D56"/>
<path d="M901.75 347.382L900.904 346.848L686.99 211.665L705.546 182.303L706.392 182.837L920.305 318.02L901.75 347.382ZM689.75 211.042L901.127 344.622L917.545 318.643L706.169 185.062L689.75 211.042Z" fill="#3F3D56"/>
<path d="M850.102 200.77C843.884 196.835 836.668 194.766 829.309 194.809C821.951 194.852 814.76 197.006 808.588 201.014C802.417 205.021 797.525 210.716 794.493 217.42C791.461 224.125 790.416 231.559 791.482 238.84L801.682 245.286C799.119 239.334 798.528 232.718 799.997 226.406C801.466 220.094 804.917 214.418 809.845 210.209C814.772 206.001 820.918 203.48 827.382 203.017C833.846 202.554 840.288 204.172 845.766 207.635C851.244 211.098 855.469 216.223 857.823 222.261C860.177 228.299 860.536 234.932 858.847 241.189C857.159 247.445 853.512 252.997 848.44 257.031C843.368 261.065 837.138 263.37 830.662 263.607L840.862 270.053C847.897 267.893 854.164 263.761 858.92 258.146C863.677 252.532 866.723 245.67 867.696 238.376C868.67 231.082 867.531 223.662 864.414 216.997C861.297 210.331 856.333 204.699 850.111 200.77H850.102Z" fill="#3F3D56"/>
<path d="M909 513.087H0V515.087H909V513.087Z" fill="#3F3D56"/>
<path d="M397.037 499.44H382.473L375.541 443.266H397.041L397.037 499.44Z" fill="#FEB8B8"/>
<path d="M354.387 512.961H400.158V495.277H371.826C367.201 495.277 362.765 497.115 359.495 500.385C356.224 503.656 354.387 508.091 354.387 512.716V512.716V512.961Z" fill="#2F2E41"/>
<path d="M391.918 412.394L401.964 422.939L447.416 389.212L432.59 373.649L391.918 412.394Z" fill="#FEB8B8"/>
<path d="M412.313 427.771L392.764 407.259L379.961 419.461L411.543 452.599L411.72 452.43C413.378 450.85 414.709 448.958 415.636 446.864C416.563 444.77 417.069 442.513 417.124 440.223C417.179 437.934 416.782 435.655 415.957 433.519C415.132 431.382 413.893 429.429 412.313 427.771V427.771Z" fill="#2F2E41"/>
<path d="M290.548 258.496C289.626 257.013 289.041 255.346 288.833 253.613C288.625 251.879 288.8 250.121 289.345 248.462C289.889 246.803 290.791 245.284 291.987 244.012C293.182 242.739 294.642 241.744 296.263 241.096L353.442 95.3691L375.73 108.714L312.212 248.514C313.12 251.311 312.97 254.344 311.791 257.037C310.612 259.731 308.485 261.899 305.815 263.129C303.144 264.36 300.115 264.568 297.301 263.714C294.487 262.86 292.084 261.003 290.548 258.496V258.496Z" fill="#FEB8B8"/>
<path d="M507.581 268.941C505.839 268.817 504.145 268.312 502.619 267.462C501.093 266.612 499.773 265.437 498.75 264.021C497.727 262.605 497.027 260.983 496.7 259.267C496.372 257.551 496.425 255.785 496.854 254.091L412.5 122.222L436.391 112.022L512.227 245.545C515.028 246.451 517.398 248.353 518.889 250.891C520.379 253.428 520.886 256.425 520.313 259.312C519.74 262.199 518.127 264.775 515.779 266.551C513.432 268.327 510.515 269.179 507.581 268.945V268.941Z" fill="#FEB8B8"/>
<path d="M354.006 243.904L368.937 465.817L404.619 462.669L411.965 298.947L431.905 369.261L474.933 372.409L457.902 233.409L354.006 243.904Z" fill="#2F2E41"/>
<path d="M438.201 358.768L431.901 369.263L387.828 399.697L419.312 416.489C419.312 416.489 480.181 382.906 474.934 372.411L438.201 358.768Z" fill="#2F2E41"/>
<path d="M322.76 154.121L335.181 119.121C337.944 111.333 342.225 104.171 347.774 98.0486C353.324 91.9262 360.033 86.9652 367.513 83.4528V83.4528C384.325 77.2592 402.609 76.2583 419.997 80.5798L424.517 81.7018C436.57 84.6232 447.863 90.0775 457.645 97.7018C465.299 103.736 472.185 111.376 472.798 119.594C472.801 119.611 472.806 119.628 472.813 119.645C474.933 128.937 475.982 177.212 475.982 177.212H457.282L460.24 242.279L460.001 241.808C460.001 241.808 352.145 262.219 352.145 251.724V184.556L349.934 160.236L322.76 154.121Z" fill="#CCCCCC"/>
<path d="M423.432 71.4811C439.939 71.4811 453.321 58.0994 453.321 41.5921C453.321 25.0849 439.939 11.7031 423.432 11.7031C406.925 11.7031 393.543 25.0849 393.543 41.5921C393.543 58.0994 406.925 71.4811 423.432 71.4811Z" fill="#FEB8B8"/>
<path d="M427.909 28.1886L451.117 29.1186C454.037 29.1096 457.225 29.0066 459.449 27.1186C462.799 24.2696 462.238 18.8936 460.444 14.8776C455.444 3.69557 444.291 -0.310426 432.044 0.0185744C419.797 0.347574 406.964 4.49856 400.369 14.8186C393.774 25.1386 391.992 38.1706 394.476 50.1626C397.348 44.0648 401.769 38.8269 407.297 34.9718C412.826 31.1167 419.269 28.7791 425.984 28.1926L427.909 28.1886Z" fill="#2F2E41"/>
<path d="M565.722 320.545L481.721 261.672C480.94 261.122 480.409 260.286 480.244 259.346C480.079 258.406 480.293 257.439 480.839 256.657L546.77 162.584C547.319 161.804 548.155 161.273 549.095 161.107C550.035 160.942 551.002 161.156 551.785 161.702L635.786 220.575C636.567 221.124 637.098 221.96 637.263 222.9C637.429 223.84 637.215 224.807 636.669 225.59L570.739 319.66C570.19 320.441 569.354 320.973 568.413 321.139C567.473 321.305 566.505 321.091 565.722 320.545V320.545Z" fill="#0091EA"/>
<path d="M584.614 256.664L535.323 222.118C534.753 221.718 534.267 221.21 533.893 220.623C533.52 220.036 533.265 219.381 533.145 218.695C533.024 218.01 533.04 217.307 533.191 216.628C533.342 215.948 533.625 215.305 534.024 214.735C534.424 214.165 534.932 213.679 535.519 213.305C536.106 212.932 536.761 212.677 537.447 212.557C538.132 212.436 538.835 212.452 539.515 212.603C540.194 212.754 540.837 213.037 541.407 213.436L590.698 247.982C591.849 248.789 592.633 250.02 592.876 251.405C593.12 252.789 592.803 254.214 591.996 255.365C591.19 256.516 589.959 257.3 588.574 257.543C587.189 257.787 585.765 257.47 584.614 256.664V256.664Z" fill="white"/>
<path d="M573.301 272.804L524.01 238.258C523.44 237.859 522.953 237.351 522.579 236.764C522.204 236.177 521.95 235.521 521.829 234.835C521.708 234.149 521.723 233.446 521.874 232.767C522.025 232.087 522.308 231.443 522.708 230.873C523.108 230.302 523.616 229.816 524.204 229.443C524.791 229.069 525.447 228.814 526.133 228.694C526.819 228.574 527.522 228.59 528.202 228.741C528.881 228.893 529.525 229.177 530.095 229.577L579.385 264.122C580.535 264.93 581.317 266.161 581.56 267.545C581.803 268.928 581.486 270.352 580.68 271.503C579.874 272.653 578.643 273.437 577.26 273.681C575.876 273.925 574.452 273.609 573.301 272.804V272.804Z" fill="white"/>
<path d="M561.867 289.119L512.577 254.573C512.007 254.173 511.521 253.666 511.147 253.078C510.774 252.491 510.519 251.836 510.398 251.15C510.278 250.465 510.294 249.762 510.445 249.083C510.595 248.403 510.879 247.76 511.278 247.19C511.678 246.62 512.186 246.134 512.773 245.761C513.36 245.387 514.015 245.132 514.701 245.012C515.386 244.891 516.089 244.907 516.768 245.058C517.448 245.209 518.091 245.492 518.661 245.892L567.952 280.437C569.103 281.244 569.887 282.475 570.13 283.86C570.374 285.244 570.057 286.669 569.25 287.82C568.444 288.971 567.212 289.755 565.828 289.998C564.443 290.242 563.019 289.925 561.867 289.119V289.119Z" fill="white"/>
<path d="M584.475 224.733L565.383 211.353C564.813 210.954 564.326 210.446 563.952 209.859C563.577 209.271 563.323 208.616 563.202 207.93C563.081 207.244 563.096 206.541 563.247 205.861C563.398 205.181 563.681 204.538 564.081 203.967C564.481 203.397 564.989 202.911 565.577 202.537C566.164 202.163 566.82 201.909 567.506 201.789C568.192 201.668 568.895 201.684 569.575 201.836C570.254 201.987 570.898 202.271 571.468 202.672L590.559 216.052C591.711 216.859 592.494 218.09 592.738 219.475C592.981 220.859 592.665 222.284 591.858 223.435C591.051 224.586 589.82 225.37 588.435 225.613C587.051 225.857 585.626 225.54 584.475 224.733V224.733Z" fill="white"/>
</g>
<defs>
<clipPath id="clip0">
<rect width="920.304" height="515.087" fill="white"/>
</clipPath>
</defs>
</svg>
