<?xml version="1.0"?>
<svg xmlns="http://www.w3.org/2000/svg" xmlns:xlink="http://www.w3.org/1999/xlink" xmlns:svgjs="http://svgjs.com/svgjs" version="1.1" width="512" height="512" x="0" y="0" viewBox="0 0 24 24" style="enable-background:new 0 0 512 512" xml:space="preserve" class=""><g><path xmlns="http://www.w3.org/2000/svg" d="m21.25 0h-18.5c-1.517 0-2.75 1.233-2.75 2.75v10.5c0 1.517 1.233 2.75 2.75 2.75h8.029c.878-3.166 3.779-5.5 7.221-5.5 2.455 0 4.631 1.191 6 3.019v-10.769c0-1.517-1.233-2.75-2.75-2.75zm-15 4.5h-2.5c-.414 0-.75-.336-.75-.75s.336-.75.75-.75h2.5c.414 0 .75.336.75.75s-.336.75-.75.75zm5.75 6.5c-1.654 0-3-1.346-3-3s1.346-3 3-3 3 1.346 3 3-1.346 3-3 3z" fill="#E85DBE" data-original="#000000" style="" class=""/><path xmlns="http://www.w3.org/2000/svg" d="m18 12c-3.308 0-6 2.692-6 6s2.692 6 6 6 6-2.692 6-6-2.692-6-6-6zm2.75 7h-1.75v1.75c0 .552-.448 1-1 1s-1-.448-1-1v-1.75h-1.75c-.552 0-1-.448-1-1s.448-1 1-1h1.75v-1.75c0-.552.448-1 1-1s1 .448 1 1v1.75h1.75c.552 0 1 .448 1 1s-.448 1-1 1z" fill="#bcbcbc" data-original="#000000" style="" class=""/></g></svg>
