<svg xmlns="http://www.w3.org/2000/svg" className="g-icon" aria-hidden="true" viewBox="0 0 24 24" width="24"  height="24" ><svg id="icon-all" viewBox="0 0 24 24"> <path d="M15 6H5a3 3 0 0 0-3 3v10a3 3 0 0 0 3 3h10a3 3 0 0 0 3-3V9a3 3 0 0 0-3-3zm1 13a1 1 0 0 1-1 1H5a1 1 0 0 1-1-1V9a1 1 0 0 1 1-1h10a1 1 0 0 1 1 1zm3-17H8a1 1 0 0 0 0 2h11a1 1 0 0 1 1 1v11a1 1 0 0 0 2 0V5a3 3 0 0 0-3-3zm-6 9a1 1 0 0 0-.71.29L9 14.59l-1.29-1.3A1 1 0 0 0 7 13a1 1 0 0 0-1 1 1 1 0 0 0 .29.71l2 2a1 1 0 0 0 1.42 0l4-4A1 1 0 0 0 14 12a1 1 0 0 0-1-1z"></path> </svg></svg>