<svg width="512" height="512" viewBox="0 0 512 512" fill="none" xmlns="http://www.w3.org/2000/svg">
<g clip-path="url(#clip0)">
<path d="M469.331 170.67H463.421L390.144 42.68C384.467 32.784 375.299 25.711 364.33 22.774C353.413 19.857 341.995 21.389 332.224 27.076L21.141 208.17C0.95299 219.92 -5.99601 246.025 5.63999 266.347L10.918 275.566L10.922 275.576L19.742 290.974L64 368.256V448.003C64 471.534 83.137 490.67 106.669 490.67H469.33C492.863 490.67 511.999 471.535 511.999 448.003V213.337C512 189.806 492.863 170.67 469.331 170.67ZM64.002 325.302L55.855 311.07L64.002 306.327V325.302ZM64.002 213.337V232.433L24.143 255.636C18.381 245.464 21.837 232.463 31.887 226.607L64.586 207.572C64.325 209.476 64.002 211.363 64.002 213.337ZM403.376 108.742L438.83 170.67H297.007L403.376 108.742ZM342.969 45.514C347.802 42.701 353.428 41.92 358.813 43.379C364.261 44.837 368.803 48.358 371.626 53.285L371.648 53.324L170.086 170.67H127.975L342.969 45.514ZM256.008 352.004C256.008 357.9 251.237 362.671 245.341 362.671H138.671C132.775 362.671 128.004 357.9 128.004 352.004C128.004 346.108 132.775 341.337 138.671 341.337H245.341C251.237 341.337 256.008 346.108 256.008 352.004ZM288.009 426.67H138.671C132.775 426.67 128.004 421.899 128.004 416.003C128.004 410.107 132.775 405.336 138.671 405.336H288.009C293.905 405.336 298.676 410.107 298.676 416.003C298.676 421.899 293.905 426.67 288.009 426.67ZM404.013 426.67C397.013 426.67 390.211 425.045 384.012 421.92C377.814 425.045 371.012 426.67 364.011 426.67C339.75 426.67 320.01 407.535 320.01 384.003C320.01 360.471 339.75 341.336 364.011 341.336C371.011 341.336 377.814 342.961 384.012 346.086C390.21 342.961 397.012 341.336 404.013 341.336C428.274 341.336 448.014 360.471 448.014 384.003C448.014 407.535 428.274 426.67 404.013 426.67Z" fill="#BCBCBC"/>
</g>
<defs>
<clipPath id="clip0">
<rect width="512" height="512" fill="white"/>
</clipPath>
</defs>
</svg>
