<?xml version="1.0" encoding="UTF-8"?>
<svg xmlns="http://www.w3.org/2000/svg" xmlns:xlink="http://www.w3.org/1999/xlink" width="25pt" height="25pt" viewBox="0 0 25 25" version="1.1">
<g id="surface1">
<path style=" stroke:none;fill-rule:nonzero;fill:rgb(0%,0%,0%);fill-opacity:1;" d="M 6.300781 7.144531 C 2.679688 8.136719 1.289062 9.375 1.089844 11.757812 C 0.894531 14.582031 1.734375 15.179688 4.910156 14.386719 C 7.640625 13.738281 8.234375 13.242188 8.53125 11.410156 C 8.679688 10.269531 8.929688 10.167969 11.359375 10.019531 C 15.179688 9.820312 16.367188 10.167969 16.367188 11.605469 C 16.367188 13.09375 17.113281 13.691406 19.988281 14.386719 C 23.066406 15.179688 23.910156 14.535156 23.710938 11.707031 C 23.609375 10.070312 23.265625 9.523438 21.925781 8.632812 C 18.800781 6.496094 11.308594 5.804688 6.300781 7.144531 Z M 6.300781 7.144531 "/>
<path style=" stroke:none;fill-rule:nonzero;fill:rgb(0%,0%,0%);fill-opacity:1;" d="M 11.90625 17.460938 C 11.90625 20.980469 11.90625 20.980469 10.914062 20.089844 C 9.226562 18.550781 9.128906 19.792969 10.8125 21.476562 L 12.402344 23.066406 L 13.988281 21.476562 C 15.675781 19.792969 15.574219 18.550781 13.890625 20.089844 C 12.898438 20.980469 12.898438 20.980469 12.898438 17.460938 C 12.898438 15.425781 12.699219 13.890625 12.402344 13.890625 C 12.101562 13.890625 11.90625 15.425781 11.90625 17.460938 Z M 11.90625 17.460938 "/>
</g>
</svg>
