<?xml version="1.0" encoding="UTF-8"?>
<svg xmlns="http://www.w3.org/2000/svg" xmlns:xlink="http://www.w3.org/1999/xlink" width="15pt" height="15pt" viewBox="0 0 15 15" version="1.1">
<g id="surface1">
<path style=" stroke:none;fill-rule:nonzero;fill:rgb(0%,0%,0%);fill-opacity:1;" d="M 3.8125 4.320312 C 1.621094 4.921875 0.78125 5.671875 0.660156 7.113281 C 0.542969 8.820312 1.050781 9.179688 2.96875 8.703125 C 4.621094 8.308594 4.980469 8.007812 5.160156 6.902344 C 5.25 6.210938 5.402344 6.148438 6.871094 6.058594 C 9.179688 5.941406 9.898438 6.148438 9.898438 7.019531 C 9.898438 7.917969 10.351562 8.28125 12.089844 8.703125 C 13.953125 9.179688 14.460938 8.792969 14.339844 7.082031 C 14.28125 6.089844 14.070312 5.761719 13.261719 5.222656 C 11.371094 3.929688 6.839844 3.511719 3.8125 4.320312 Z M 3.8125 4.320312 "/>
<path style=" stroke:none;fill-rule:nonzero;fill:rgb(0%,0%,0%);fill-opacity:1;" d="M 7.203125 10.5625 C 7.203125 12.691406 7.203125 12.691406 6.601562 12.152344 C 5.582031 11.21875 5.523438 11.972656 6.539062 12.988281 L 7.5 13.953125 L 8.460938 12.988281 C 9.480469 11.972656 9.417969 11.21875 8.402344 12.152344 C 7.800781 12.691406 7.800781 12.691406 7.800781 10.5625 C 7.800781 9.332031 7.679688 8.402344 7.5 8.402344 C 7.320312 8.402344 7.203125 9.332031 7.203125 10.5625 Z M 7.203125 10.5625 "/>
</g>
</svg>
