<svg xmlns="http://www.w3.org/2000/svg" className="g-icon" aria-hidden="true" viewBox="0 0 24 24" width="24"  height="24" ><svg id="icon-media" viewBox="0 0 24 24"> <path d="M18 3H6a3 3 0 0 0-3 3v12a3 3 0 0 0 3 3h12a3 3 0 0 0 3-3V6a3 3 0 0 0-3-3zm0 16H6a1 1 0 0 1-.93-.66l3.43-3.43L9.59 16l-.3.29A1 1 0 0 0 9 17a1 1 0 0 0 1 1 1 1 0 0 0 .71-.29l3.79-3.8 4.43 4.43A1 1 0 0 1 18 19zm1-3.41l-3.79-3.8a1 1 0 0 0-1.42 0L11 14.59l-1.79-1.8a1 1 0 0 0-1.42 0L5 15.59V6a1 1 0 0 1 1-1h12a1 1 0 0 1 1 1zM8.5 7A1.5 1.5 0 1 0 10 8.5 1.5 1.5 0 0 0 8.5 7z" fill="#E85DBE"></path> </svg></svg>