<svg xmlns="http://www.w3.org/2000/svg" className="g-icon" aria-hidden="true" viewBox="0 0 24 24" width="24"  height="24" ><g fill="#E85DBE" id="icon-like"> <path d="M12,22a1,1,0,0,1-.71-.29C5.87,16.29,2,13.06,2,9A5.89,5.89,0,0,1,7.75,3,5.66,5.66,0,0,1,12,5.2,5.66,5.66,0,0,1,16.25,3,5.89,5.89,0,0,1,22,9c0,4-3.75,7.17-9.29,12.71A1,1,0,0,1,12,22ZM7.75,5A3.88,3.88,0,0,0,4,9c0,3.12,3.81,6.44,8,10.59,4.09-4.06,8-7.47,8-10.59a3.88,3.88,0,0,0-3.75-4A3.8,3.8,0,0,0,13,7.56a1,1,0,0,1-1.9,0A3.8,3.8,0,0,0,7.75,5Z" fill="#E85DBE"></path> </g></svg>