<?xml version="1.0" encoding="UTF-8"?>
<svg xmlns="http://www.w3.org/2000/svg" xmlns:xlink="http://www.w3.org/1999/xlink" width="16pt" height="16pt" viewBox="0 0 16 16" version="1.1">
<g id="surface1">
<path style=" stroke:none;fill-rule:nonzero;fill:#E85DBE;fill-opacity:1;" d="M 14.691406 1.960938 C 13.863281 1.074219 12.703125 0.570312 11.492188 0.566406 C 10.273438 0.570312 9.113281 1.074219 8.28125 1.960938 L 8 2.261719 L 7.71875 1.960938 C 6.074219 0.195312 3.304688 0.09375 1.535156 1.734375 C 1.457031 1.808594 1.382812 1.882812 1.308594 1.960938 C -0.4375 3.84375 -0.4375 6.753906 1.308594 8.632812 L 7.585938 15.257812 C 7.804688 15.484375 8.164062 15.492188 8.394531 15.277344 C 8.402344 15.269531 8.410156 15.265625 8.414062 15.257812 L 14.691406 8.632812 C 16.4375 6.753906 16.4375 3.84375 14.691406 1.960938 Z M 14.691406 1.960938 "/>
</g>
</svg>
