<svg xmlns="http://www.w3.org/2000/svg" className="g-icon" aria-hidden="true" viewBox="0 0 24 24" width="24"  height="24" ><svg id="icon-highlights" viewBox="0 0 24 24"> <path d="M5.31,7a1,1,0,0,0,1-1A1,1,0,0,0,6,5.23,1,1,0,0,0,5.31,5a1,1,0,0,0-.74.34A1,1,0,0,0,4.32,6,1,1,0,0,0,5.31,7Zm3-2.2a1,1,0,0,0,1-1,1,1,0,0,0-.09-.41,1,1,0,0,0-1.32-.51,1,1,0,0,0-.59.92,1,1,0,0,0,.09.41A1,1,0,0,0,8.34,4.78ZM4.05,12.92a1,1,0,1,0-2,0V13h0a1,1,0,0,0,1,.89h.1A1,1,0,0,0,4.05,12.92ZM12,2a1,1,0,0,0,0,2A8,8,0,1,1,5.07,16a1,1,0,0,0-.86-.5,1,1,0,0,0-1,1C3.21,17.43,6.4,22,12,22c3.41,0,10-2.67,10-10C22,5.07,16,2,12,2ZM3.13,10.16a.87.87,0,0,0,.31.05,1,1,0,0,0,.95-.69,1.12,1.12,0,0,0,.05-.31A1,1,0,0,0,2.49,8.9a1.12,1.12,0,0,0-.05.31A1,1,0,0,0,3.13,10.16Zm4.7.39c0,1.74,1.59,2.95,3.89,5.09a.41.41,0,0,0,.56,0c2.3-2.14,3.89-3.35,3.89-5.09A2.29,2.29,0,0,0,12,9.23a2.25,2.25,0,0,0-1.87-1A2.28,2.28,0,0,0,7.83,10.55Z"></path> </svg></svg>