<svg xmlns="http://www.w3.org/2000/svg" className="g-icon l-sidebar__menu__icon" aria-hidden="true" viewBox="0 0 24 24" width="24"  height="24" ><g fill="#E85DBE" id="icon-logout"> <path d="M18 3H6a3 3 0 0 0-3 3v1a1 1 0 0 0 2 0V6a1 1 0 0 1 1-1h12a1 1 0 0 1 1 1v12a1 1 0 0 1-1 1H6a1 1 0 0 1-1-1v-1a1 1 0 0 0-2 0v1a3 3 0 0 0 3 3h12a3 3 0 0 0 3-3V6a3 3 0 0 0-3-3zm-8 5a1 1 0 0 0-1-1 1 1 0 0 0-.71.29l-4 4a1 1 0 0 0 0 1.42l4 4A1 1 0 0 0 9 17a1 1 0 0 0 1-1 1 1 0 0 0-.29-.71L7.41 13H16a1 1 0 0 0 0-2H7.41l2.3-2.29A1 1 0 0 0 10 8z" fill="#E85DBE"></path> </g></svg>