<svg xmlns="http://www.w3.org/2000/svg" className="g-icon" aria-hidden="true" viewBox="0 0 24 24" width="24"  height="24" ><svg id="icon-price-free" viewBox="0 0 24 24"> <path d="M21 10.6l-1.67-1.69-1.42 1.42L19.6 12a1.4 1.4 0 010 2L14 19.6a1.45 1.45 0 01-2 0l-1.68-1.69-1.41 1.42L10.6 21a3.4 3.4 0 004.8 0l5.6-5.6a3.4 3.4 0 000-4.8zM7.7 6a1.7 1.7 0 101.7 1.7A1.7 1.7 0 007.7 6zM22 3a1 1 0 00-1-1 1 1 0 00-.71.29l-3.79 3.8-2.91-2.92A4.06 4.06 0 0010.76 2H5a3 3 0 00-3 3v5.76a4 4 0 001.17 2.83l2.92 2.91-3.8 3.79A1 1 0 002 21a1 1 0 001 1 1 1 0 00.71-.29l18-18A1 1 0 0022 3zM7.5 15.09l-2.91-2.92A2 2 0 014 10.76V5a1 1 0 011-1h5.76a2 2 0 011.41.59l2.92 2.91z"></path> </svg></svg>