<svg xmlns="http://www.w3.org/2000/svg" className="g-icon has-tooltip" aria-hidden="true" data-original-title="null" aria-describedby="tooltip_t8t541ivg4" viewBox="0 0 24 24" width="24"  height="24" ><g fill="rgba(138, 150, 163, 0.7)" id="icon-send"> <path d="M20 3a.9.9 0 00-.28 0l-17 5A1 1 0 002 9a1 1 0 00.49.86l4.82 2.89a5 5 0 002.57.71 5.37 5.37 0 00.7 0 5.36 5.36 0 00-.05.7 5 5 0 00.72 2.57l2.89 4.82a1 1 0 001.86-.27l5-17A.9.9 0 0021 4a1 1 0 00-1-1zm-5.32 15.53L13 15.66a3.05 3.05 0 01-.42-1.54 3 3 0 01.84-2.12l.29-.29A1 1 0 0014 11a1 1 0 00-1-1 1 1 0 00-.71.29l-.29.29a3 3 0 01-2.12.88A3.05 3.05 0 018.34 11L5.47 9.32l13.05-3.84zM9 17a1 1 0 00-.71.29l-1 1A1 1 0 007 19a1 1 0 001 1 1 1 0 00.71-.29l1-1A1 1 0 0010 18a1 1 0 00-1-1zm-2-2a1 1 0 00-1-1 1 1 0 00-.71.29l-3 3A1 1 0 002 18a1 1 0 001 1 1 1 0 00.71-.29l3-3A1 1 0 007 15z" fill="#E85DBE"></path> </g></svg>