<svg xmlns="http://www.w3.org/2000/svg" className="g-icon" aria-hidden="true" viewBox="0 0 24 24" width="24"  height="24" ><svg id="icon-share" viewBox="0 0 24 24" fill="#E85DBE"> <path d="M20 14a1 1 0 00-1 1v3a1 1 0 01-1 1H6a1 1 0 01-1-1V6a1 1 0 011-1h4a1 1 0 000-2H6a3 3 0 00-3 3v12a3 3 0 003 3h12a3 3 0 003-3v-3a1 1 0 00-1-1zm-1.41-8H17a9 9 0 00-9 9 1 1 0 002 0 7 7 0 017-7h1.59l-2.3 2.29A1 1 0 0016 11a1 1 0 001 1 1 1 0 00.71-.29L22.41 7l-4.7-4.71A1 1 0 0017 2a1 1 0 00-1 1 1 1 0 00.29.71z" fill="#E85DBE"></path> </svg>
                                    <svg id="icon-share" viewBox="0 0 24 24" fill="#E85DBE"> <path d="M20 14a1 1 0 00-1 1v3a1 1 0 01-1 1H6a1 1 0 01-1-1V6a1 1 0 011-1h4a1 1 0 000-2H6a3 3 0 00-3 3v12a3 3 0 003 3h12a3 3 0 003-3v-3a1 1 0 00-1-1zm-1.41-8H17a9 9 0 00-9 9 1 1 0 002 0 7 7 0 017-7h1.59l-2.3 2.29A1 1 0 0016 11a1 1 0 001 1 1 1 0 00.71-.29L22.41 7l-4.7-4.71A1 1 0 0017 2a1 1 0 00-1 1 1 1 0 00.29.71z" fill="#E85DBE"></path> </svg>
                                   </svg>