<?xml version="1.0" encoding="UTF-8"?>
<svg xmlns="http://www.w3.org/2000/svg" xmlns:xlink="http://www.w3.org/1999/xlink" width="16pt" height="16pt" viewBox="0 0 16 16" version="1.1">
<g id="surface1">
<path style=" stroke:none;fill-rule:nonzero;fill:rgb(25.882353%,68.627451%,94.117647%);fill-opacity:1;" d="M 5.917969 4.796875 L 7.167969 0.910156 C 7.425781 0.113281 8.550781 0.113281 8.8125 0.910156 L 10.070312 4.796875 L 14.175781 4.796875 C 15.011719 4.796875 15.359375 5.867188 14.683594 6.359375 L 11.367188 8.761719 L 12.640625 12.640625 C 12.902344 13.4375 11.992188 14.101562 11.316406 13.609375 L 8.011719 11.207031 L 4.699219 13.621094 C 4.023438 14.113281 3.113281 13.453125 3.371094 12.660156 L 4.640625 8.761719 L 1.316406 6.359375 C 0.640625 5.871094 0.984375 4.796875 1.824219 4.796875 Z M 5.917969 4.796875 "/>
<path style=" stroke:none;fill-rule:nonzero;fill:rgb(25.882353%,68.627451%,94.117647%);fill-opacity:1;" d="M 4.191406 14.105469 C 3.949219 14.105469 3.710938 14.027344 3.5 13.875 C 3.082031 13.570312 2.914062 13.054688 3.074219 12.5625 L 4.273438 8.878906 L 1.132812 6.613281 C 0.714844 6.308594 0.542969 5.792969 0.703125 5.300781 C 0.863281 4.804688 1.304688 4.484375 1.824219 4.484375 L 5.691406 4.484375 L 6.871094 0.816406 C 7.03125 0.320312 7.46875 0 7.988281 0 L 7.992188 0 C 8.507812 0 8.949219 0.320312 9.109375 0.8125 L 10.300781 4.484375 L 10.71875 4.484375 C 10.890625 4.484375 11.03125 4.625 11.03125 4.796875 C 11.03125 4.972656 10.890625 5.109375 10.71875 5.109375 L 10.070312 5.109375 C 9.9375 5.109375 9.816406 5.023438 9.773438 4.894531 L 8.511719 1.003906 C 8.421875 0.726562 8.183594 0.625 7.988281 0.625 C 7.796875 0.625 7.558594 0.726562 7.464844 1.007812 L 6.214844 4.894531 C 6.175781 5.023438 6.054688 5.109375 5.917969 5.109375 L 1.824219 5.109375 C 1.527344 5.109375 1.359375 5.308594 1.300781 5.492188 C 1.238281 5.675781 1.261719 5.933594 1.5 6.105469 L 4.824219 8.507812 C 4.933594 8.585938 4.980469 8.726562 4.9375 8.855469 L 3.667969 12.753906 C 3.578125 13.035156 3.710938 13.257812 3.867188 13.371094 C 4.023438 13.484375 4.277344 13.542969 4.515625 13.371094 L 7.828125 10.957031 C 7.9375 10.875 8.085938 10.875 8.195312 10.957031 L 11.5 13.355469 C 11.738281 13.527344 11.988281 13.46875 12.144531 13.355469 C 12.300781 13.242188 12.4375 13.019531 12.34375 12.738281 L 11.070312 8.859375 C 11.03125 8.730469 11.074219 8.589844 11.183594 8.511719 L 14.5 6.105469 C 14.738281 5.933594 14.761719 5.675781 14.699219 5.492188 C 14.640625 5.308594 14.472656 5.109375 14.175781 5.109375 L 13.53125 5.109375 C 13.359375 5.109375 13.21875 4.972656 13.21875 4.796875 C 13.21875 4.625 13.359375 4.484375 13.53125 4.484375 L 14.175781 4.484375 C 14.695312 4.484375 15.136719 4.804688 15.296875 5.296875 C 15.457031 5.792969 15.289062 6.308594 14.867188 6.613281 L 11.738281 8.882812 L 12.9375 12.542969 C 13.101562 13.039062 12.933594 13.554688 12.515625 13.859375 C 12.09375 14.167969 11.550781 14.167969 11.132812 13.859375 L 8.011719 11.59375 L 4.882812 13.875 C 4.671875 14.027344 4.433594 14.105469 4.191406 14.105469 Z M 4.191406 14.105469 "/>
<path style=" stroke:none;fill-rule:nonzero;fill:rgb(25.882353%,68.627451%,94.117647%);fill-opacity:1;" d="M 8 16 C 7.828125 16 7.6875 15.859375 7.6875 15.6875 L 7.6875 13.160156 C 7.6875 12.988281 7.828125 12.847656 8 12.847656 C 8.171875 12.847656 8.3125 12.988281 8.3125 13.160156 L 8.3125 15.6875 C 8.3125 15.859375 8.171875 16 8 16 Z M 8 16 "/>
<path style=" stroke:none;fill-rule:nonzero;fill:rgb(25.882353%,68.627451%,94.117647%);fill-opacity:1;" d="M 15.621094 10.460938 C 15.589844 10.460938 15.558594 10.457031 15.527344 10.445312 L 13.121094 9.664062 C 12.957031 9.613281 12.867188 9.4375 12.921875 9.273438 C 12.976562 9.109375 13.152344 9.019531 13.316406 9.070312 L 15.71875 9.851562 C 15.882812 9.90625 15.972656 10.082031 15.921875 10.246094 C 15.878906 10.378906 15.753906 10.460938 15.621094 10.460938 Z M 15.621094 10.460938 "/>
<path style=" stroke:none;fill-rule:nonzero;fill:rgb(25.882353%,68.627451%,94.117647%);fill-opacity:1;" d="M 11.226562 3.546875 C 11.160156 3.546875 11.097656 3.527344 11.042969 3.484375 C 10.902344 3.382812 10.871094 3.1875 10.972656 3.050781 L 12.457031 1.003906 C 12.558594 0.863281 12.753906 0.832031 12.894531 0.933594 C 13.035156 1.035156 13.066406 1.230469 12.964844 1.371094 L 11.476562 3.417969 C 11.417969 3.5 11.320312 3.546875 11.226562 3.546875 Z M 11.226562 3.546875 "/>
<path style=" stroke:none;fill-rule:nonzero;fill:rgb(25.882353%,68.627451%,94.117647%);fill-opacity:1;" d="M 4.773438 3.546875 C 4.679688 3.546875 4.582031 3.5 4.523438 3.417969 L 3.035156 1.371094 C 2.933594 1.230469 2.964844 1.035156 3.105469 0.933594 C 3.246094 0.832031 3.441406 0.863281 3.542969 1.003906 L 5.027344 3.050781 C 5.128906 3.1875 5.097656 3.382812 4.957031 3.484375 C 4.902344 3.527344 4.839844 3.546875 4.773438 3.546875 Z M 4.773438 3.546875 "/>
<path style=" stroke:none;fill-rule:nonzero;fill:rgb(25.882353%,68.627451%,94.117647%);fill-opacity:1;" d="M 0.378906 10.460938 C 0.246094 10.460938 0.121094 10.378906 0.078125 10.246094 C 0.0273438 10.082031 0.117188 9.90625 0.28125 9.851562 L 2.683594 9.070312 C 2.847656 9.019531 3.023438 9.109375 3.078125 9.273438 C 3.132812 9.4375 3.042969 9.613281 2.878906 9.664062 L 0.472656 10.445312 C 0.441406 10.457031 0.410156 10.460938 0.378906 10.460938 Z M 0.378906 10.460938 "/>
<path style=" stroke:none;fill-rule:nonzero;fill:rgb(25.882353%,68.627451%,94.117647%);fill-opacity:1;" d="M 12.125 5.109375 C 12.042969 5.109375 11.960938 5.078125 11.902344 5.019531 C 11.84375 4.960938 11.8125 4.882812 11.8125 4.796875 C 11.8125 4.714844 11.84375 4.636719 11.902344 4.578125 C 11.960938 4.519531 12.042969 4.484375 12.125 4.484375 C 12.207031 4.484375 12.289062 4.519531 12.34375 4.578125 C 12.402344 4.636719 12.4375 4.714844 12.4375 4.796875 C 12.4375 4.882812 12.402344 4.960938 12.34375 5.019531 C 12.289062 5.078125 12.207031 5.109375 12.125 5.109375 Z M 12.125 5.109375 "/>
</g>
</svg>
