<svg xmlns="http://www.w3.org/2000/svg" className="g-icon" aria-hidden="true" viewBox="0 0 24 24" width="24"  height="24" ><svg id="icon-video" viewBox="0 0 24 24"> <path d="M21.79 6a1.21 1.21 0 0 0-.86.35L19 8.25V7a3 3 0 0 0-3-3H5a3 3 0 0 0-3 3v10a3 3 0 0 0 3 3h11a3 3 0 0 0 3-3v-1.25l1.93 1.93a1.22 1.22 0 0 0 2.07-.86V7.18A1.21 1.21 0 0 0 21.79 6zM17 17a1 1 0 0 1-1 1H5a1 1 0 0 1-1-1V7a1 1 0 0 1 1-1h11a1 1 0 0 1 1 1zm4-2.08l-1.34-1.34a2.25 2.25 0 0 1 0-3.16L21 9.08z" fill="#E85DBE"></path> </svg></svg>