<svg width="55" height="55" viewBox="0 0 55 55" fill="none" xmlns="http://www.w3.org/2000/svg">
<g clip-path="url(#clip0)">
<path d="M27.167 54.333C12.188 54.333 0 42.147 0 27.167C0 12.187 12.188 0.000976562 27.167 0.000976562C42.146 0.000976562 54.334 12.188 54.334 27.167C54.334 42.146 42.147 54.333 27.167 54.333ZM27.167 7.00098C16.047 7.00098 7 16.048 7 27.167C7 38.287 16.047 47.334 27.167 47.334C38.287 47.334 47.334 38.287 47.334 27.167C47.334 16.048 38.287 7.00098 27.167 7.00098Z" fill="#0091EA"/>
<path d="M29.5761 12.205C29.5761 12.205 29.5761 12.328 29.5761 12.479C29.5761 12.63 30.4661 12.871 31.5351 13.15C32.8741 13.499 34.1101 13.993 35.2561 14.633C36.0001 15.064 36.6661 15.808 36.6661 16.983C36.6661 18.472 35.4911 19.608 34.0021 19.608C33.5321 19.608 33.0631 19.49 32.6321 19.255C32.1011 18.971 31.5711 18.714 31.0451 18.494C30.1481 18.118 29.3801 18.818 29.3801 19.923V21.877C29.3801 22.982 30.2501 24.099 31.2931 24.463C35.8841 26.065 37.8801 28.414 37.8801 32.298C37.8801 36.074 35.3851 38.689 31.5431 39.694C30.4741 39.974 29.5771 40.518 29.5771 41.092V42.13C29.5771 43.266 28.6761 44.166 27.5401 44.166C26.4041 44.166 25.5041 43.266 25.5041 42.13C25.5041 42.13 25.5041 41.656 25.5041 41.072C25.5041 40.488 24.6111 39.912 23.5371 39.656C21.4851 39.168 19.5461 38.345 17.7871 37.272C16.9651 36.763 16.4551 35.98 16.4551 34.922C16.4551 33.394 17.6311 32.258 19.1581 32.258C19.6671 32.258 20.2161 32.454 20.6851 32.768C21.7241 33.435 22.7311 33.978 23.7861 34.386C24.8161 34.785 25.6981 34.066 25.6981 32.961V30.732C25.6981 29.627 24.8301 28.51 23.7851 28.15C19.4281 26.65 17.2771 24.489 17.2771 20.389C17.2771 16.682 19.7121 14.019 23.5361 13.023C24.6051 12.745 25.5031 12.567 25.5031 12.437V12.202C25.5031 11.066 26.4031 10.165 27.5391 10.165C28.6751 10.165 29.5761 11.069 29.5761 12.205ZM25.6981 20.859V19.571C25.6981 18.466 24.7211 17.59 23.8451 18.263C23.2641 18.709 22.9961 19.322 22.9961 20.039C22.9961 20.806 23.2151 21.417 23.9191 21.96C24.7941 22.635 25.6981 21.964 25.6981 20.859ZM29.3801 31.714V33.158C29.3801 34.263 30.3501 35.134 31.2451 34.487C31.8531 34.047 32.1611 33.419 32.1611 32.612C32.1611 31.795 31.8951 31.15 31.1641 30.598C30.2831 29.932 29.3801 30.609 29.3801 31.714Z" fill="#0091EA"/>
</g>
<defs>
<clipPath id="clip0">
<rect width="54.334" height="54.334" fill="white"/>
</clipPath>
</defs>
</svg>
