<svg width="801" height="542" viewBox="0 0 801 542" fill="none" xmlns="http://www.w3.org/2000/svg">
<g clip-path="url(#clip0)">
<path d="M731.892 189.445C731.052 190.135 730.212 190.795 729.352 191.445H517.212C515.632 190.795 514.059 190.129 512.492 189.445C490.097 179.699 469.252 166.721 450.622 150.925C438.252 140.445 426.872 129.625 418.622 119.485C407.113 105.335 396.512 89.9152 391.582 72.3453C386.662 54.7753 388.132 34.6353 399.122 20.0653C402.526 15.5834 406.709 11.752 411.472 8.7553C412.262 8.2553 413.062 7.77531 413.882 7.32531C427.062 -0.0746942 443.692 -1.8747 458.533 1.9553C479.783 7.4453 497.442 22.7753 510.042 40.7553C522.642 58.7253 530.823 79.3653 538.882 99.7753C547.062 63.3453 571.832 30.7153 605.292 14.1253C638.742 -2.46471 680.303 -2.2647 713.042 15.7053C723.344 21.3937 732.649 28.7231 740.593 37.4053C741.382 38.2553 742.153 39.1253 742.912 40.0053C758.882 58.4953 768.872 82.1753 769.692 106.595C770.742 138.055 756.162 169.655 731.892 189.445Z" fill="#F2F2F2"/>
<path d="M525.691 191.446H522.691C522.652 190.776 522.602 190.116 522.542 189.446C521.493 176.365 519.298 163.402 515.981 150.706C508.373 121.719 495.377 94.4243 477.671 70.2455C460.017 45.9894 437.76 25.4456 412.171 9.78552C411.984 9.67827 411.824 9.52977 411.703 9.3513C411.581 9.17282 411.502 8.96908 411.472 8.75552C411.423 8.47627 411.454 8.18885 411.562 7.92677C411.67 7.66468 411.851 7.43873 412.082 7.27523C412.314 7.11174 412.587 7.01743 412.87 7.00332C413.154 6.98921 413.435 7.05587 413.682 7.19552C413.75 7.2353 413.817 7.27869 413.881 7.32551C428.379 16.1621 441.837 26.601 454.002 38.4455C475.761 59.6717 493.306 84.8243 505.712 112.576C516.656 136.88 523.359 162.879 525.532 189.446C525.592 190.116 525.642 190.786 525.691 191.446Z" fill="white"/>
<path d="M742.914 40.0053C742.892 40.0166 742.868 40.0233 742.844 40.0253C740.654 40.4253 738.454 40.8453 736.273 41.2953C718.378 44.9704 700.861 50.2896 683.943 57.1853C667.071 64.0713 650.841 72.4372 635.443 82.1853C620.026 91.9283 605.488 102.997 591.994 115.265C578.499 127.516 566.12 140.942 555.003 155.385C546.695 166.207 539.14 177.587 532.394 189.445C532.014 190.105 531.644 190.775 531.273 191.445H527.844C528.204 190.775 528.574 190.105 528.954 189.445C537.116 174.915 546.475 161.091 556.934 148.115C568.499 133.755 581.32 120.453 595.244 108.365C609.079 96.3459 623.927 85.5457 639.624 76.0853C655.385 66.5867 671.956 58.5018 689.144 51.9253C705.822 45.5491 723.042 40.6894 740.594 37.4053C741.083 37.3153 741.563 37.2253 742.054 37.1353C743.923 36.7953 744.724 39.6153 742.914 40.0053Z" fill="white"/>
<path d="M197.68 197.39C203.015 187.319 203.896 174.203 197.262 164.936C193.314 159.42 187.148 155.799 180.679 153.756C174.21 151.714 167.386 151.113 160.62 150.617C153.923 150.126 147.106 149.733 140.564 151.247C134.022 152.762 127.685 156.463 124.497 162.373C119.113 172.359 124.018 185.163 120.064 195.796C116.435 205.554 106.106 211.258 95.9532 213.56C85.8002 215.863 75.203 215.618 65.045 217.897C54.8869 220.177 44.5414 225.829 40.8481 235.563C38.1773 242.601 39.5043 250.709 43.0235 257.364C46.5427 264.019 52.0543 269.407 57.9047 274.145C66.6325 281.214 76.8435 287.267 88.0578 287.88C99.8741 288.526 111.428 282.901 119.933 274.672C128.437 266.443 134.227 255.81 138.853 244.917C141.788 238.007 144.561 230.571 150.442 225.905C154.763 222.476 160.259 220.974 165.59 219.553L171.626 217.944C177.095 216.513 182.214 213.978 186.667 210.495C191.12 207.012 194.813 202.655 197.52 197.691C197.574 197.591 197.627 197.491 197.68 197.39Z" fill="#2F2E41"/>
<path d="M150.08 528.665H137.821L131.988 481.377H150.083L150.08 528.665Z" fill="#FFB8B8"/>
<path d="M129.063 525.162H152.707V540.049H114.176C114.176 538.094 114.561 536.158 115.309 534.352C116.057 532.545 117.154 530.904 118.536 529.522C119.918 528.14 121.56 527.043 123.366 526.295C125.172 525.547 127.108 525.162 129.063 525.162V525.162Z" fill="#2F2E41"/>
<path d="M252.08 528.665H239.821L233.988 481.377H252.083L252.08 528.665Z" fill="#FFB8B8"/>
<path d="M231.063 525.162H254.707V540.049H216.176C216.176 538.094 216.561 536.158 217.309 534.352C218.057 532.545 219.154 530.904 220.536 529.522C221.918 528.14 223.56 527.043 225.366 526.295C227.172 525.547 229.108 525.162 231.063 525.162V525.162Z" fill="#2F2E41"/>
<path d="M173.647 491.08C173.476 491.08 173.305 491.071 173.135 491.053L123.257 485.709C122.595 485.638 121.955 485.426 121.381 485.089C120.806 484.751 120.311 484.295 119.926 483.751C119.542 483.207 119.278 482.587 119.151 481.933C119.025 481.279 119.04 480.606 119.194 479.957L163.357 311.987C163.563 311.133 164.005 310.353 164.631 309.736C165.258 309.119 166.044 308.689 166.902 308.495L207.87 297.075C208.691 296.894 209.546 296.937 210.346 297.197C211.146 297.458 211.861 297.927 212.419 298.557C238.759 328.267 258.609 394.128 273.646 477.142C273.759 477.768 273.744 478.411 273.601 479.032C273.458 479.652 273.19 480.237 272.814 480.75C272.437 481.264 271.961 481.696 271.412 482.019C270.864 482.342 270.255 482.551 269.624 482.632L228.756 487.849C227.597 488 226.423 487.711 225.466 487.04C224.509 486.369 223.838 485.364 223.585 484.223L203.702 395.574C203.519 394.758 203.061 394.03 202.405 393.511C201.75 392.992 200.936 392.715 200.099 392.724C199.263 392.734 198.456 393.03 197.812 393.564C197.169 394.098 196.728 394.837 196.564 395.657L178.234 487.308C178.026 488.371 177.455 489.33 176.618 490.018C175.781 490.706 174.73 491.082 173.647 491.08V491.08Z" fill="#2F2E41"/>
<path d="M166.057 220.455C179.622 220.455 190.618 209.459 190.618 195.894C190.618 182.329 179.622 171.333 166.057 171.333C152.492 171.333 141.496 182.329 141.496 195.894C141.496 209.459 152.492 220.455 166.057 220.455Z" fill="#FFB8B8"/>
<path d="M165.374 312.459C164.342 312.458 163.339 312.116 162.521 311.486C161.703 310.855 161.117 309.972 160.853 308.974L146.077 253.464C145.011 249.476 145.452 245.234 147.318 241.55C149.183 237.867 152.341 235 156.187 233.5C168.081 228.857 179.413 227.135 189.868 228.378C199.16 229.486 210.622 284.497 209.864 285.67L213.531 296.67C213.739 297.294 213.813 297.955 213.749 298.609C213.685 299.263 213.485 299.897 213.16 300.469C212.836 301.041 212.394 301.538 211.865 301.929C211.336 302.319 210.731 302.594 210.089 302.735L166.394 312.347C166.059 312.421 165.717 312.459 165.374 312.459V312.459Z" fill="#CCCCCC"/>
<path d="M178.617 369.226C178.827 368.134 178.796 367.008 178.524 365.929C178.253 364.85 177.748 363.844 177.045 362.981C176.343 362.119 175.46 361.42 174.458 360.936C173.457 360.451 172.361 360.192 171.249 360.177L162.736 334.507L154.035 345.544L163.453 368.228C163.551 370.099 164.332 371.868 165.648 373.202C166.963 374.535 168.723 375.339 170.592 375.462C172.461 375.585 174.31 375.019 175.789 373.869C177.268 372.72 178.274 371.068 178.617 369.226V369.226Z" fill="#FFB8B8"/>
<path d="M288.063 307.534C287.553 306.545 286.833 305.68 285.953 304.999C285.073 304.318 284.054 303.839 282.968 303.595C281.883 303.351 280.757 303.347 279.67 303.585C278.583 303.823 277.562 304.297 276.678 304.972L254.122 290.05L254.102 304.104L275.524 316.12C276.757 317.53 278.465 318.438 280.323 318.674C282.181 318.909 284.061 318.454 285.607 317.396C287.153 316.338 288.256 314.749 288.709 312.932C289.161 311.114 288.932 309.193 288.063 307.534H288.063Z" fill="#FFB8B8"/>
<path d="M160.767 357.366C159.78 357.366 158.819 357.055 158.019 356.478C157.219 355.9 156.622 355.085 156.313 354.148L136.356 311.932C135.537 309.458 135.12 306.869 135.121 304.263L141.121 249.392C141.121 246.319 142.293 243.363 144.399 241.126C146.504 238.889 149.384 237.539 152.451 237.354C155.517 237.168 158.539 238.16 160.9 240.126C163.26 242.093 164.78 244.886 165.151 247.936L155.971 310.567L170.62 349.007C170.852 350.03 170.734 351.1 170.284 352.048C169.835 352.995 169.08 353.764 168.142 354.232L162.864 356.871C162.213 357.197 161.495 357.366 160.767 357.366Z" fill="#CCCCCC"/>
<path d="M267.351 313.077C266.616 313.077 265.891 312.904 265.236 312.573L225.548 292.526C223.221 291.352 221.098 289.812 219.259 287.965L180.522 249.103C178.353 246.927 177.097 244.006 177.009 240.935C176.921 237.864 178.009 234.876 180.049 232.579C182.09 230.283 184.93 228.852 187.99 228.579C191.05 228.306 194.099 229.211 196.514 231.109L238.477 277.712L271.74 298.832C272.626 299.392 273.298 300.234 273.649 301.223C273.999 302.211 274.008 303.288 273.673 304.282L271.798 309.877C271.485 310.809 270.888 311.619 270.09 312.194C269.292 312.768 268.334 313.077 267.351 313.077L267.351 313.077Z" fill="#CCCCCC"/>
<path d="M138.121 183.196C142.293 188.654 148.29 192.427 155.016 193.827C161.834 195.236 168.929 194.219 175.076 190.953C180.023 188.28 183.981 184.269 187.858 180.319C189.476 178.671 191.2 176.77 191.118 174.522C190.992 171.038 186.804 169.134 183.21 168.374C171.411 165.913 159.134 167.293 148.177 172.314C143.297 174.581 138.213 178.682 138.945 183.78" fill="#2F2E41"/>
<path d="M783.121 189.445H301.121C296.614 189.452 292.294 191.245 289.107 194.432C285.921 197.618 284.127 201.939 284.121 206.445V392.445C284.127 396.952 285.921 401.272 289.107 404.459C292.294 407.646 296.614 409.439 301.121 409.445H783.121C787.628 409.439 791.948 407.646 795.135 404.459C798.322 401.272 800.115 396.952 800.121 392.445V206.445C800.115 201.939 798.322 197.618 795.135 194.432C791.948 191.245 787.628 189.452 783.121 189.445V189.445ZM798.121 392.445C798.116 396.422 796.534 400.235 793.722 403.047C790.91 405.859 787.098 407.44 783.121 407.445H301.121C297.144 407.44 293.332 405.859 290.52 403.047C287.708 400.235 286.126 396.422 286.121 392.445V206.445C286.126 202.469 287.708 198.656 290.52 195.844C293.332 193.032 297.144 191.45 301.121 191.445H783.121C787.098 191.45 790.91 193.032 793.722 195.844C796.534 198.656 798.116 202.469 798.121 206.445V392.445Z" fill="#3F3D56"/>
<path d="M388.637 357.445C377.165 357.445 365.952 354.044 356.414 347.671C346.876 341.297 339.442 332.239 335.052 321.641C330.662 311.043 329.513 299.381 331.751 288.13C333.989 276.879 339.513 266.545 347.625 258.433C355.736 250.322 366.071 244.798 377.322 242.56C388.572 240.322 400.234 241.47 410.832 245.86C421.43 250.25 430.489 257.684 436.862 267.222C443.235 276.76 446.637 287.974 446.637 299.445C446.619 314.823 440.503 329.565 429.63 340.438C418.756 351.312 404.014 357.428 388.637 357.445V357.445ZM388.637 243.445C377.561 243.445 366.734 246.73 357.525 252.883C348.316 259.036 341.138 267.782 336.9 278.015C332.661 288.248 331.552 299.507 333.713 310.37C335.874 321.233 341.207 331.212 349.039 339.043C356.871 346.875 366.849 352.209 377.712 354.369C388.575 356.53 399.834 355.421 410.067 351.183C420.3 346.944 429.046 339.766 435.199 330.557C441.352 321.348 444.637 310.521 444.637 299.445C444.62 284.598 438.715 270.364 428.216 259.866C417.718 249.368 403.484 243.462 388.637 243.445Z" fill="#0091EA"/>
<path d="M740.11 311.445H509.11C505.881 311.447 502.779 312.699 500.452 314.938C498.126 317.176 496.756 320.229 496.63 323.455C496.614 323.618 496.607 323.782 496.61 323.945C496.615 327.259 497.933 330.436 500.277 332.779C502.62 335.122 505.796 336.441 509.11 336.445H740.11C743.425 336.445 746.605 335.128 748.949 332.784C751.293 330.44 752.61 327.261 752.61 323.945C752.61 320.63 751.293 317.451 748.949 315.106C746.605 312.762 743.425 311.445 740.11 311.445V311.445Z" fill="#0091EA"/>
<path d="M382 541.445H1C0.734784 541.445 0.480429 541.34 0.292892 541.152C0.105356 540.965 0 540.711 0 540.445C0 540.18 0.105356 539.926 0.292892 539.738C0.480429 539.551 0.734784 539.445 1 539.445H382C382.265 539.445 382.52 539.551 382.707 539.738C382.895 539.926 383 540.18 383 540.445C383 540.711 382.895 540.965 382.707 541.152C382.52 541.34 382.265 541.445 382 541.445Z" fill="#3F3D56"/>
<path d="M683.258 144.395C662.367 141.521 641.152 142 620.413 145.812C599.733 149.592 579.77 156.572 561.24 166.5C550.826 172.096 540.943 178.626 531.711 186.009C530.203 187.214 532.338 189.325 533.832 188.131C550.032 175.245 568.191 165.037 587.619 157.895C606.894 150.766 627.154 146.656 647.684 145.71C659.3 145.177 670.94 145.705 682.46 147.288C682.843 147.379 683.247 147.322 683.59 147.128C683.932 146.933 684.188 146.616 684.306 146.24C684.409 145.856 684.357 145.448 684.161 145.102C683.965 144.757 683.64 144.503 683.258 144.395H683.258Z" fill="white"/>
<path d="M395.665 265.667H368.999C367.231 265.667 365.535 266.369 364.285 267.619C363.034 268.869 362.332 270.565 362.332 272.333V325.666C362.332 327.435 363.034 329.13 364.285 330.381C365.535 331.631 367.231 332.333 368.999 332.333H408.999C410.767 332.333 412.462 331.631 413.713 330.381C414.963 329.13 415.665 327.435 415.665 325.666V285.667L395.665 265.667Z" stroke="#0091EA" stroke-width="2" stroke-linecap="round" stroke-linejoin="round"/>
<path d="M395.668 265.667V285.667H415.668" stroke="#0091EA" stroke-width="2" stroke-linecap="round" stroke-linejoin="round"/>
<path d="M402.335 302.333H375.668" stroke="#0091EA" stroke-width="2" stroke-linecap="round" stroke-linejoin="round"/>
<path d="M402.335 315.667H375.668" stroke="#0091EA" stroke-width="2" stroke-linecap="round" stroke-linejoin="round"/>
<path d="M382.335 289H379.001H375.668" stroke="#0091EA" stroke-width="2" stroke-linecap="round" stroke-linejoin="round"/>
<path d="M550.248 290H545.854L537.299 275.967V290H532.904V268.672H537.299L545.868 282.734V268.672H550.248V290ZM553.148 281.929C553.148 280.356 553.451 278.955 554.057 277.725C554.662 276.494 555.531 275.542 556.664 274.868C557.807 274.194 559.13 273.857 560.634 273.857C562.772 273.857 564.516 274.512 565.863 275.82C567.221 277.129 567.978 278.906 568.134 281.152L568.163 282.236C568.163 284.668 567.484 286.621 566.127 288.096C564.77 289.561 562.948 290.293 560.663 290.293C558.378 290.293 556.552 289.561 555.185 288.096C553.827 286.631 553.148 284.639 553.148 282.119V281.929ZM557.382 282.236C557.382 283.74 557.665 284.893 558.231 285.693C558.798 286.484 559.608 286.88 560.663 286.88C561.688 286.88 562.489 286.489 563.065 285.708C563.642 284.917 563.93 283.657 563.93 281.929C563.93 280.454 563.642 279.312 563.065 278.501C562.489 277.69 561.679 277.285 560.634 277.285C559.599 277.285 558.798 277.69 558.231 278.501C557.665 279.302 557.382 280.547 557.382 282.236ZM577.582 281.958C577.582 279.487 578.134 277.52 579.237 276.055C580.351 274.59 581.869 273.857 583.793 273.857C585.336 273.857 586.61 274.434 587.616 275.586V267.5H591.864V290H588.041L587.836 288.315C586.781 289.634 585.424 290.293 583.764 290.293C581.898 290.293 580.399 289.561 579.267 288.096C578.144 286.621 577.582 284.575 577.582 281.958ZM581.815 282.266C581.815 283.75 582.074 284.888 582.592 285.679C583.109 286.47 583.861 286.865 584.848 286.865C586.156 286.865 587.079 286.313 587.616 285.21V278.955C587.089 277.852 586.176 277.3 584.877 277.3C582.836 277.3 581.815 278.955 581.815 282.266ZM604.33 290C604.135 289.619 603.993 289.146 603.905 288.579C602.88 289.722 601.547 290.293 599.906 290.293C598.354 290.293 597.064 289.844 596.039 288.945C595.023 288.047 594.516 286.914 594.516 285.547C594.516 283.867 595.136 282.578 596.376 281.68C597.626 280.781 599.428 280.327 601.781 280.317H603.729V279.409C603.729 278.677 603.539 278.091 603.158 277.651C602.787 277.212 602.196 276.992 601.386 276.992C600.673 276.992 600.111 277.163 599.701 277.505C599.301 277.847 599.101 278.315 599.101 278.911H594.867C594.867 277.993 595.15 277.144 595.717 276.362C596.283 275.581 597.084 274.971 598.119 274.531C599.154 274.082 600.316 273.857 601.605 273.857C603.559 273.857 605.106 274.351 606.249 275.337C607.401 276.313 607.978 277.69 607.978 279.468V286.338C607.987 287.842 608.197 288.979 608.607 289.751V290H604.33ZM600.829 287.056C601.454 287.056 602.03 286.919 602.558 286.646C603.085 286.362 603.476 285.986 603.729 285.518V282.793H602.147C600.028 282.793 598.9 283.525 598.764 284.99L598.749 285.239C598.749 285.767 598.935 286.201 599.306 286.543C599.677 286.885 600.185 287.056 600.829 287.056ZM616.298 270.254V274.15H619.008V277.256H616.298V285.166C616.298 285.752 616.41 286.172 616.635 286.426C616.859 286.68 617.289 286.807 617.924 286.807C618.393 286.807 618.808 286.772 619.169 286.704V289.912C618.339 290.166 617.484 290.293 616.605 290.293C613.637 290.293 612.123 288.794 612.064 285.796V277.256H609.75V274.15H612.064V270.254H616.298ZM630.551 290C630.355 289.619 630.214 289.146 630.126 288.579C629.101 289.722 627.768 290.293 626.127 290.293C624.574 290.293 623.285 289.844 622.26 288.945C621.244 288.047 620.736 286.914 620.736 285.547C620.736 283.867 621.356 282.578 622.597 281.68C623.847 280.781 625.648 280.327 628.002 280.317H629.95V279.409C629.95 278.677 629.76 278.091 629.379 277.651C629.008 277.212 628.417 276.992 627.606 276.992C626.894 276.992 626.332 277.163 625.922 277.505C625.521 277.847 625.321 278.315 625.321 278.911H621.088C621.088 277.993 621.371 277.144 621.938 276.362C622.504 275.581 623.305 274.971 624.34 274.531C625.375 274.082 626.537 273.857 627.826 273.857C629.779 273.857 631.327 274.351 632.47 275.337C633.622 276.313 634.198 277.69 634.198 279.468V286.338C634.208 287.842 634.418 288.979 634.828 289.751V290H630.551ZM627.05 287.056C627.675 287.056 628.251 286.919 628.778 286.646C629.306 286.362 629.696 285.986 629.95 285.518V282.793H628.368C626.249 282.793 625.121 283.525 624.984 284.99L624.97 285.239C624.97 285.767 625.155 286.201 625.526 286.543C625.897 286.885 626.405 287.056 627.05 287.056ZM646.078 290V277.256H643.72V274.15H646.078V272.803C646.078 271.025 646.586 269.648 647.602 268.672C648.627 267.686 650.058 267.192 651.894 267.192C652.479 267.192 653.197 267.29 654.047 267.485L654.003 270.767C653.651 270.679 653.222 270.635 652.714 270.635C651.122 270.635 650.326 271.382 650.326 272.876V274.15H653.476V277.256H650.326V290H646.078ZM655.014 281.929C655.014 280.356 655.316 278.955 655.922 277.725C656.527 276.494 657.396 275.542 658.529 274.868C659.672 274.194 660.995 273.857 662.499 273.857C664.638 273.857 666.381 274.512 667.729 275.82C669.086 277.129 669.843 278.906 669.999 281.152L670.028 282.236C670.028 284.668 669.35 286.621 667.992 288.096C666.635 289.561 664.813 290.293 662.528 290.293C660.243 290.293 658.417 289.561 657.05 288.096C655.692 286.631 655.014 284.639 655.014 282.119V281.929ZM659.247 282.236C659.247 283.74 659.53 284.893 660.097 285.693C660.663 286.484 661.474 286.88 662.528 286.88C663.554 286.88 664.354 286.489 664.931 285.708C665.507 284.917 665.795 283.657 665.795 281.929C665.795 280.454 665.507 279.312 664.931 278.501C664.354 277.69 663.544 277.285 662.499 277.285C661.464 277.285 660.663 277.69 660.097 278.501C659.53 279.302 659.247 280.547 659.247 282.236ZM682.128 288.389C681.083 289.658 679.638 290.293 677.792 290.293C676.093 290.293 674.794 289.805 673.896 288.828C673.007 287.852 672.553 286.421 672.533 284.536V274.15H676.767V284.39C676.767 286.04 677.519 286.865 679.022 286.865C680.458 286.865 681.444 286.367 681.981 285.371V274.15H686.229V290H682.245L682.128 288.389ZM693.319 274.15L693.451 275.981C694.584 274.565 696.103 273.857 698.007 273.857C699.687 273.857 700.937 274.351 701.757 275.337C702.577 276.323 702.997 277.798 703.017 279.761V290H698.783V279.863C698.783 278.965 698.588 278.315 698.197 277.915C697.807 277.505 697.157 277.3 696.249 277.3C695.058 277.3 694.164 277.808 693.568 278.823V290H689.335V274.15H693.319ZM705.58 281.958C705.58 279.487 706.132 277.52 707.235 276.055C708.349 274.59 709.867 273.857 711.791 273.857C713.334 273.857 714.608 274.434 715.614 275.586V267.5H719.862V290H716.039L715.834 288.315C714.779 289.634 713.422 290.293 711.762 290.293C709.896 290.293 708.397 289.561 707.265 288.096C706.142 286.621 705.58 284.575 705.58 281.958ZM709.813 282.266C709.813 283.75 710.072 284.888 710.59 285.679C711.107 286.47 711.859 286.865 712.846 286.865C714.154 286.865 715.077 286.313 715.614 285.21V278.955C715.087 277.852 714.174 277.3 712.875 277.3C710.834 277.3 709.813 278.955 709.813 282.266Z" fill="#0091EA"/>
</g>
<defs>
<clipPath id="clip0">
<rect width="800.122" height="541.445" fill="white"/>
</clipPath>
</defs>
</svg>
